<svg width="13" height="12" viewBox="0 0 13 12" fill="none" xmlns="http://www.w3.org/2000/svg">
<path d="M6.87735 0C7.5789 0.00179996 7.93497 0.00539987 8.2424 0.0137997L8.36338 0.0179995C8.50306 0.0227994 8.64088 0.0287993 8.80738 0.0359991C9.47088 0.0659984 9.92361 0.166796 10.3208 0.314992C10.7324 0.467389 11.0791 0.673784 11.4259 1.00678C11.7431 1.30661 11.9884 1.66944 12.1449 2.06995C12.2989 2.45214 12.4036 2.88773 12.4348 3.52671C12.4423 3.68631 12.4485 3.81891 12.4535 3.9539L12.4573 4.0703C12.4666 4.36549 12.4704 4.70809 12.4716 5.38307L12.4722 5.83066V6.61664C12.4738 7.05427 12.469 7.4919 12.4579 7.92941L12.4542 8.04581C12.4492 8.1808 12.4429 8.3134 12.4355 8.47299C12.4043 9.11198 12.2983 9.54697 12.1449 9.92976C11.9884 10.3303 11.7431 10.6931 11.4259 10.9929C11.1142 11.2981 10.7371 11.5342 10.3208 11.6847C9.92361 11.8329 9.47088 11.9337 8.80738 11.9637L8.36338 11.9817L8.2424 11.9853C7.93497 11.9937 7.5789 11.9979 6.87735 11.9991L6.41215 11.9997H5.59587C5.14081 12.0013 4.68575 11.9967 4.23082 11.9859L4.10984 11.9823C3.96181 11.9769 3.8138 11.9707 3.66584 11.9637C3.00234 11.9337 2.54961 11.8329 2.15176 11.6847C1.73571 11.5342 1.35882 11.2981 1.04737 10.9929C0.729926 10.6932 0.484332 10.3303 0.327742 9.92976C0.173714 9.54757 0.06895 9.11198 0.0377703 8.47299L0.0190625 8.04581L0.0159446 7.92941C0.00444931 7.49191 -0.000747873 7.05428 0.000354699 6.61664V5.38307C-0.00137135 4.94544 0.00320217 4.50781 0.0140738 4.0703L0.018439 3.9539C0.0234277 3.81891 0.0296636 3.68631 0.0371468 3.52671C0.0683265 2.88773 0.17309 2.45274 0.327118 2.06995C0.484073 1.66928 0.730099 1.30643 1.04799 1.00678C1.35926 0.701712 1.73593 0.465633 2.15176 0.314992C2.54961 0.166796 3.00171 0.0659984 3.66584 0.0359991C3.83172 0.0287993 3.97016 0.0227994 4.10984 0.0179995L4.23082 0.0143996C4.68554 0.00373953 5.14039 -0.000860798 5.59524 0.000599942L6.87735 0ZM6.2363 2.99993C5.40936 2.99993 4.61629 3.31599 4.03156 3.87859C3.44683 4.44118 3.11833 5.20422 3.11833 5.99985C3.11833 6.79549 3.44683 7.55853 4.03156 8.12112C4.61629 8.68372 5.40936 8.99978 6.2363 8.99978C7.06324 8.99978 7.8563 8.68372 8.44104 8.12112C9.02577 7.55853 9.35427 6.79549 9.35427 5.99985C9.35427 5.20422 9.02577 4.44118 8.44104 3.87859C7.8563 3.31599 7.06324 2.99993 6.2363 2.99993ZM6.2363 4.1999C6.48197 4.19986 6.72525 4.24638 6.95224 4.3368C7.17923 4.42722 7.38549 4.55977 7.55923 4.72688C7.73298 4.894 7.87082 5.0924 7.96487 5.31076C8.05892 5.52913 8.10735 5.76318 8.10739 5.99955C8.10743 6.23593 8.05909 6.47 7.96511 6.68839C7.87113 6.90679 7.73336 7.10523 7.55967 7.2724C7.38599 7.43957 7.17977 7.57219 6.95282 7.66268C6.72586 7.75318 6.4826 7.79977 6.23692 7.79981C5.74076 7.79981 5.26492 7.61017 4.91408 7.27262C4.56324 6.93506 4.36614 6.47723 4.36614 5.99985C4.36614 5.52248 4.56324 5.06465 4.91408 4.72709C5.26492 4.38954 5.74076 4.1999 6.23692 4.1999M9.51079 2.09995C9.30406 2.09995 9.10579 2.17896 8.95961 2.31961C8.81342 2.46026 8.7313 2.65102 8.7313 2.84993C8.7313 3.04884 8.81342 3.2396 8.95961 3.38025C9.10579 3.5209 9.30406 3.59991 9.51079 3.59991C9.71753 3.59991 9.91579 3.5209 10.062 3.38025C10.2082 3.2396 10.2903 3.04884 10.2903 2.84993C10.2903 2.65102 10.2082 2.46026 10.062 2.31961C9.91579 2.17896 9.71753 2.09995 9.51079 2.09995Z" fill="#15549F"/>
</svg>
