<svg width="148" height="33" viewBox="0 0 148 33" fill="none" xmlns="http://www.w3.org/2000/svg">
<path d="M28.4105 25.9344V0.335841H32.5551V25.9344H28.4105Z" fill="#3C3C3B"/>
<path d="M43.3573 25.9344H39.0901L33.9645 0.335841H38.4467L40.964 16.3948C41.241 18.1921 41.3636 20.0511 41.3636 20.0511H41.4257C41.4257 20.0511 41.5483 18.1921 41.8253 16.3948L44.4003 0.335841H48.4829L43.3573 25.9344Z" fill="#1D71B8"/>
<path d="M53.4866 26.2689C51.4915 26.2689 49.8642 25.6587 49.0059 25.02L49.9883 21.759C50.5105 22.1242 51.6459 22.5509 52.7509 22.5509C54.4705 22.5509 55.5755 21.1188 55.5755 19.4732C55.5755 14.3847 49.1905 13.4094 49.1905 6.43044C49.1905 2.3774 51.8608 0 55.4832 0C57.3254 0 58.8603 0.64018 59.6278 1.24885L58.768 4.20485C58.3078 3.86972 57.233 3.47301 56.1583 3.47301C54.4402 3.47301 53.3034 4.75337 53.3034 6.42901C53.3034 11.4874 59.811 12.4327 59.811 19.4718C59.811 23.4332 57.171 26.2674 53.4881 26.2674L53.4866 26.2689Z" fill="#3C3C3B"/>
<path d="M0.116066 32.9294V27.9354H0.980184V32.9294H0.116066Z" fill="#3C3C3B"/>
<path d="M1.77263 32.9294V27.9354H2.57327L3.62493 30.7911H3.63936V27.9354H4.4198V32.9294H3.66677L2.56606 29.8101H2.55163V32.9294H1.77119H1.77263Z" fill="#3C3C3B"/>
<path d="M5.08525 27.9373H6.36628C7.25781 27.9373 7.73098 28.4214 7.73098 29.4454V31.4232C7.73098 32.4472 7.25781 32.9313 6.36628 32.9313H5.08525V27.9373ZM5.94937 32.2252H6.24943C6.70962 32.2252 6.86975 32.0519 6.86975 31.5263V29.3408C6.86975 28.8152 6.70962 28.6419 6.24943 28.6419H5.94937V32.2252Z" fill="#3C3C3B"/>
<path d="M8.40697 27.9373H9.27108V31.7068C9.27108 32.0734 9.41679 32.2524 9.73127 32.2524C10.0458 32.2524 10.1915 32.072 10.1915 31.7068V27.9373H11.0556V31.6724C11.0556 32.5302 10.5536 33 9.73127 33C8.90899 33 8.40841 32.5302 8.40841 31.6724V27.9373H8.40697Z" fill="#3C3C3B"/>
<path d="M13.2992 29.1689C13.2646 28.7407 13.0338 28.6161 12.839 28.6161C12.5606 28.6161 12.4077 28.7966 12.4077 29.1073C12.4077 29.958 14.1633 30.3662 14.1633 31.721C14.1633 32.5445 13.6065 33 12.7986 33C11.9908 33 11.5378 32.3641 11.5032 31.6165L12.3254 31.4991C12.3601 32.0032 12.562 32.2524 12.8404 32.2524C13.1405 32.2524 13.3425 32.0934 13.3425 31.7955C13.3425 30.8059 11.5868 30.5438 11.5868 29.1116C11.5868 28.3168 12.0744 27.8671 12.9241 27.8671C13.6281 27.8671 14.045 28.3726 14.1229 29.0773L13.3006 29.1675L13.2992 29.1689Z" fill="#3C3C3B"/>
<path d="M14.3203 28.683V27.9354H16.8564V28.683H16.0211V32.9294H15.157V28.683H14.3203Z" fill="#3C3C3B"/>
<path d="M18.0627 32.9294H17.1986V27.9354H18.4104C19.3784 27.9354 19.8732 28.3436 19.8732 29.4091C19.8732 30.2111 19.5601 30.5362 19.2673 30.668L19.9987 32.9294H19.1216L18.5085 30.8613C18.3974 30.8756 18.2156 30.8828 18.0627 30.8828V32.9294ZM18.0627 30.1767H18.3686C18.836 30.1767 19.0091 30.0034 19.0091 29.4091C19.0091 28.8147 18.8345 28.6414 18.3686 28.6414H18.0627V30.1767Z" fill="#3C3C3B"/>
<path d="M20.635 32.9294V27.9354H21.4991V32.9294H20.635Z" fill="#3C3C3B"/>
<path d="M21.9576 32.9294L22.8837 27.9354H23.957L24.8832 32.9294H24.0479L23.895 31.8223H22.9472L22.7943 32.9294H21.9576ZM23.768 31.0761L23.4261 28.9322H23.4117L23.0698 31.0761H23.768Z" fill="#3C3C3B"/>
<path d="M25.1799 32.9294V27.9354H26.044V32.1818H27.4029V32.9294H25.1799Z" fill="#3C3C3B"/>
<path d="M29.27 27.9373H30.1197L29.068 32.9313H28.2039L27.1523 27.9373H28.002L28.6295 31.4017H28.6439L29.27 27.9373Z" fill="#1D71B8"/>
<path d="M29.8471 32.9294L30.7733 27.9354H31.8465L32.7727 32.9294H31.9374L31.7845 31.8223H30.8367L30.6838 32.9294H29.8471ZM31.6576 31.0761L31.3157 28.9322H31.3012L30.9593 31.0761H31.6576Z" fill="#1D71B8"/>
<path d="M33.0694 32.9294V27.9354H33.9335V32.1818H35.2925V32.9294H33.0694Z" fill="#1D71B8"/>
<path d="M37.1596 27.9373H38.0092L36.9576 32.9313H36.0935L35.0418 27.9373H35.8915L36.519 31.4017H36.5335L37.1596 27.9373Z" fill="#1D71B8"/>
<path d="M38.3253 27.9354H40.6378V28.683H39.1894V29.9691H40.3046V30.7167H39.1894V32.1832H40.7359V32.9308H38.3253V27.9354Z" fill="#1D71B8"/>
<path d="M42.8276 29.1689C42.793 28.7407 42.5636 28.6161 42.3674 28.6161C42.089 28.6161 41.9361 28.7966 41.9361 29.1073C41.9361 29.958 43.6917 30.3662 43.6917 31.721C43.6917 32.5445 43.1349 33 42.327 33C41.5192 33 41.0662 32.3641 41.0316 31.6165L41.8539 31.4991C41.8885 32.0032 42.0905 32.2524 42.3689 32.2524C42.6689 32.2524 42.8709 32.0934 42.8709 31.7955C42.8709 30.8059 41.1153 30.5438 41.1153 29.1116C41.1153 28.3168 41.6029 27.8671 42.4526 27.8671C43.1565 27.8671 43.5735 28.3726 43.6514 29.0773L42.8291 29.1675L42.8276 29.1689Z" fill="#3C3C3B"/>
<path d="M44.1813 27.9373H45.0454V31.7068C45.0454 32.0734 45.1911 32.2524 45.5056 32.2524C45.8201 32.2524 45.9658 32.072 45.9658 31.7068V27.9373H46.8299V31.6724C46.8299 32.5302 46.3279 33 45.5056 33C44.6833 33 44.1827 32.5302 44.1827 31.6724V27.9373H44.1813Z" fill="#3C3C3B"/>
<path d="M50.9637 27.9373V32.9313H50.2106V29.03H50.1962L49.4158 32.9313H48.9974L48.217 29.03H48.2025V32.9313H47.4495V27.9373H48.5848L49.1979 30.856H49.2124L49.8255 27.9373H50.9637Z" fill="#3C3C3B"/>
<path d="M55.0575 27.9373V32.9313H54.3045V29.03H54.2901L53.5096 32.9313H53.0913L52.3108 29.03H52.2964V32.9313H51.5433V27.9373H52.6787L53.2918 30.856H53.3062L53.9193 27.9373H55.0575Z" fill="#3C3C3B"/>
<path d="M55.8016 32.9294V27.9354H56.6657V32.9294H55.8016Z" fill="#3C3C3B"/>
<path d="M57.9594 28.683H57.1241V27.9354H59.6602V28.683H58.8235V32.9294H57.9594V28.683Z" fill="#3C3C3B"/>
<path d="M26.1432 18.8589V10.2573L15.6988 14.5581L26.1432 18.8589Z" fill="#1D71B8"/>
<path d="M0 10.2326V18.8815L10.5007 14.5578L0 10.2326Z" fill="#1D71B8"/>
<path d="M13.0988 15.1754L0 20.5689V26.1315H26.1399V20.5446L13.0988 15.1754Z" fill="#1D71B8"/>
<path d="M0 0.18018V8.54691L12.5535 13.7156V5.46059H10.2569V4.36928H15.883V5.46059H13.6513V13.7127L26.1399 8.56983V0.18018H0Z" fill="#1D71B8"/>
<path d="M67.9655 0.351786H146.965V17.4175H67.9655V0.351786Z" fill="#1D71B8"/>
<path d="M77.2133 4.95793C76.9526 4.68833 76.6322 4.55353 76.2466 4.55353C75.8609 4.55353 75.5242 4.67215 75.2581 4.90401C74.9919 5.13586 74.7801 5.42163 74.628 5.75594C74.4705 6.09024 74.3565 6.4515 74.2859 6.83433C74.2153 7.21716 74.1718 7.55685 74.161 7.85341L74.1935 7.88576C74.4923 7.45441 74.8507 7.14167 75.2526 6.95835C75.66 6.77502 76.1271 6.67796 76.6539 6.67796C77.121 6.67796 77.5772 6.78041 78.028 6.97991C78.4788 7.17942 78.8536 7.45441 79.1686 7.7941C79.4619 8.12301 79.6737 8.50045 79.8094 8.92641C79.9452 9.35238 80.0104 9.77835 80.0104 10.2097C80.0104 10.7651 79.9181 11.2881 79.7388 11.7626C79.5542 12.2425 79.2989 12.663 78.9567 13.0189C78.62 13.3748 78.2181 13.6552 77.751 13.8547C77.2839 14.0542 76.7625 14.1566 76.1922 14.1566C75.3721 14.1566 74.6878 13.9949 74.1501 13.6713C73.6124 13.3478 73.1779 12.9219 72.8575 12.3935C72.537 11.865 72.3143 11.2719 72.1894 10.6033C72.0645 9.93471 72.0048 9.26072 72.0048 8.57054C72.0048 7.88037 72.0808 7.22794 72.2383 6.55934C72.3958 5.89074 72.6456 5.28144 72.9878 4.74225C73.33 4.20305 73.7699 3.76091 74.313 3.42121C74.8507 3.08152 75.5133 2.90898 76.2954 2.90898C76.7625 2.90898 77.2025 2.97368 77.6044 3.10848C78.0117 3.24328 78.3702 3.43739 78.6797 3.69081C78.9893 3.94424 79.2446 4.25697 79.4456 4.62902C79.6411 5.00106 79.7714 5.42703 79.8366 5.9123H77.7293C77.6587 5.55104 77.4903 5.23831 77.2296 4.96871L77.2133 4.95793ZM75.3504 8.49506C75.1277 8.6029 74.9431 8.74848 74.7964 8.9372C74.6498 9.12053 74.5411 9.3362 74.4705 9.57884C74.3999 9.82148 74.3619 10.0749 74.3619 10.3445C74.3619 10.5925 74.3999 10.8352 74.4814 11.0778C74.5574 11.3204 74.6715 11.5361 74.8236 11.7302C74.9756 11.919 75.1603 12.0753 75.3776 12.1886C75.5948 12.3018 75.8446 12.3611 76.1271 12.3611C76.4095 12.3611 76.6322 12.3072 76.8386 12.1886C77.0395 12.0753 77.2133 11.9243 77.36 11.741C77.5066 11.5577 77.6152 11.342 77.6858 11.1048C77.7564 10.8675 77.7945 10.6249 77.7945 10.3769C77.7945 10.1288 77.7619 9.87001 77.6913 9.62737C77.6261 9.38473 77.5229 9.16905 77.3871 8.97494C77.2513 8.78622 77.0775 8.62986 76.8657 8.51123C76.6539 8.39261 76.4041 8.3333 76.1271 8.3333C75.8501 8.3333 75.5785 8.38722 75.3558 8.49506H75.3504Z" fill="white"/>
<path d="M95.7368 3.1889V5.53473H95.2149V3.1889H95.7368Z" fill="white"/>
<path d="M96.7612 3.1889L97.7462 4.76055H97.7521V3.1889H98.2387V5.53473H97.7169L96.7319 3.96308H96.726V5.53473H96.2393V3.1889H96.7612Z" fill="white"/>
<path d="M98.5693 3.62547V3.1889H100.504V3.61965H99.7947V5.52891H99.2729V3.62547H98.5634H98.5693Z" fill="white"/>
<path d="M102.597 3.1889V3.61965H101.348V4.12025H102.491V4.52189H101.348V5.09816H102.62V5.52891H100.826V3.1889H102.597Z" fill="white"/>
<path d="M104.308 3.1889C104.414 3.1889 104.508 3.20636 104.596 3.24128C104.684 3.27621 104.754 3.32278 104.813 3.38099C104.871 3.4392 104.918 3.50905 104.953 3.58472C104.983 3.66039 105 3.74771 105 3.83502C105 3.97472 104.971 4.09114 104.912 4.19592C104.854 4.30069 104.76 4.37055 104.625 4.42875C104.689 4.45204 104.742 4.48114 104.783 4.51607C104.824 4.55099 104.859 4.59756 104.883 4.64413C104.906 4.6907 104.93 4.74891 104.942 4.80711C104.953 4.86532 104.959 4.92353 104.965 4.98174C104.965 5.01667 104.965 5.06324 104.971 5.11562C104.971 5.16801 104.977 5.2204 104.983 5.27279C104.983 5.32518 104.994 5.37757 105.012 5.42413C105.024 5.4707 105.041 5.51145 105.065 5.54637H104.543C104.513 5.4707 104.496 5.38339 104.49 5.27861C104.484 5.17383 104.472 5.07488 104.461 4.98174C104.443 4.8595 104.408 4.77219 104.349 4.71398C104.291 4.65577 104.197 4.62667 104.068 4.62667H103.546V5.54055H103.024V3.1889H104.308ZM104.121 4.24831C104.238 4.24831 104.332 4.22502 104.39 4.16681C104.449 4.1086 104.478 4.02711 104.478 3.91069C104.478 3.79427 104.449 3.71278 104.39 3.66039C104.332 3.608 104.244 3.58472 104.121 3.58472H103.552V4.24248H104.121V4.24831Z" fill="white"/>
<path d="M105.996 3.1889L106.981 4.76055H106.987V3.1889H107.474V5.53473H106.952L105.967 3.96308H105.961V5.53473H105.474V3.1889H105.996Z" fill="white"/>
<path d="M109.17 3.1889L110.055 5.53473H109.516L109.34 5.01085H108.454L108.267 5.53473H107.745L108.636 3.1889H109.17ZM109.199 4.62667L108.9 3.76517H108.894L108.589 4.62667H109.199Z" fill="white"/>
<path d="M109.834 3.62547V3.1889H111.769V3.61965H111.059V5.52891H110.538V3.62547H109.828H109.834Z" fill="white"/>
<path d="M112.609 3.1889V5.53473H112.087V3.1889H112.609Z" fill="white"/>
<path d="M113.104 3.88844C113.157 3.73709 113.233 3.60903 113.332 3.49844C113.432 3.38784 113.555 3.30052 113.696 3.23649C113.843 3.17246 114.001 3.14336 114.183 3.14336C114.364 3.14336 114.529 3.17246 114.669 3.23649C114.816 3.30052 114.933 3.38784 115.033 3.49844C115.132 3.60903 115.209 3.74291 115.261 3.88844C115.314 4.03978 115.344 4.20277 115.344 4.3774C115.344 4.55202 115.32 4.70919 115.261 4.85471C115.209 5.00024 115.132 5.1283 115.033 5.23889C114.933 5.34949 114.81 5.43681 114.669 5.49501C114.529 5.55905 114.364 5.58815 114.183 5.58815C114.001 5.58815 113.837 5.55905 113.696 5.49501C113.549 5.43098 113.432 5.34949 113.332 5.23889C113.233 5.1283 113.157 5.00024 113.104 4.85471C113.051 4.70919 113.028 4.5462 113.028 4.3774C113.028 4.20859 113.051 4.03978 113.104 3.88844ZM113.579 4.66262C113.602 4.75576 113.637 4.83725 113.69 4.91292C113.743 4.98859 113.807 5.0468 113.889 5.09337C113.972 5.13994 114.071 5.16322 114.188 5.16322C114.306 5.16322 114.405 5.13994 114.488 5.09337C114.57 5.0468 114.634 4.98859 114.687 4.91292C114.74 4.83725 114.775 4.75576 114.798 4.66262C114.822 4.56949 114.833 4.47635 114.833 4.3774C114.833 4.27844 114.822 4.17366 114.798 4.08053C114.775 3.98157 114.74 3.90008 114.687 3.82441C114.634 3.74874 114.57 3.69053 114.488 3.64396C114.405 3.59739 114.306 3.57411 114.188 3.57411C114.071 3.57411 113.972 3.59739 113.889 3.64396C113.807 3.69053 113.743 3.74874 113.69 3.82441C113.637 3.90008 113.602 3.98739 113.579 4.08053C113.555 4.17948 113.544 4.27844 113.544 4.3774C113.544 4.47635 113.555 4.56949 113.579 4.66262Z" fill="white"/>
<path d="M116.275 3.1889L117.26 4.76055H117.266V3.1889H117.752V5.53473H117.231L116.245 3.96308H116.24V5.53473H115.753V3.1889H116.275Z" fill="white"/>
<path d="M119.444 3.1889L120.33 5.53473H119.79L119.615 5.01085H118.729L118.542 5.53473H118.02L118.911 3.1889H119.444ZM119.474 4.62667L119.175 3.76517H119.169L118.864 4.62667H119.474Z" fill="white"/>
<path d="M121.106 3.1889V5.09816H122.256V5.52891H120.585V3.1889H121.106Z" fill="white"/>
<path d="M126.097 3.1889V3.61965H124.849V4.12025H125.992V4.52189H124.849V5.09816H126.121V5.52891H124.327V3.1889H126.097Z" fill="white"/>
<path d="M126.35 3.19092H126.954L127.417 3.94182L127.898 3.19092H128.467L127.71 4.30854L128.531 5.53094H127.916L127.4 4.72183L126.872 5.53094H126.291L127.118 4.30272L126.356 3.1851L126.35 3.19092Z" fill="white"/>
<path d="M129.317 3.1889V4.09114H130.273V3.1889H130.795V5.53473H130.273V4.52189H129.317V5.53473H128.795V3.1889H129.317Z" fill="white"/>
<path d="M131.817 3.1889V5.53473H131.295V3.1889H131.817Z" fill="white"/>
<path d="M133.451 3.1889C133.562 3.1889 133.668 3.20054 133.756 3.218C133.844 3.23546 133.926 3.27039 133.996 3.31696C134.066 3.36352 134.113 3.42173 134.149 3.49741C134.184 3.57308 134.201 3.66621 134.201 3.77099C134.201 3.88741 134.172 3.98636 134.119 4.06786C134.066 4.14935 133.984 4.21338 133.879 4.25995C134.025 4.30069 134.131 4.37637 134.207 4.48114C134.278 4.58592 134.313 4.70816 134.313 4.8595C134.313 4.97592 134.289 5.0807 134.242 5.16801C134.195 5.25533 134.131 5.32518 134.055 5.37757C133.979 5.42995 133.885 5.4707 133.785 5.49981C133.685 5.52891 133.58 5.54055 133.474 5.54055H132.331V3.1889H133.451ZM133.386 4.13771C133.48 4.13771 133.556 4.11442 133.615 4.07368C133.674 4.03293 133.703 3.95726 133.703 3.8583C133.703 3.80591 133.691 3.75935 133.674 3.72442C133.656 3.6895 133.627 3.66039 133.592 3.64293C133.556 3.62547 133.521 3.608 133.48 3.60218C133.439 3.59636 133.392 3.59054 133.345 3.59054H132.859V4.13771H133.386ZM133.416 5.13309C133.468 5.13309 133.515 5.13309 133.562 5.11562C133.609 5.10398 133.65 5.09234 133.685 5.06906C133.721 5.04577 133.75 5.01667 133.767 4.97592C133.791 4.93518 133.797 4.88861 133.797 4.82458C133.797 4.70234 133.762 4.62085 133.697 4.56846C133.627 4.51607 133.539 4.49279 133.427 4.49279H132.865V5.13891H133.422L133.416 5.13309Z" fill="white"/>
<path d="M135.246 3.1889V5.53473H134.724V3.1889H135.246Z" fill="white"/>
<path d="M135.567 3.62547V3.1889H137.502V3.61965H136.792V5.52891H136.27V3.62547H135.561H135.567Z" fill="white"/>
<path d="M138.349 3.1889V5.53473H137.828V3.1889H138.349Z" fill="white"/>
<path d="M138.844 3.88844C138.897 3.73709 138.973 3.60903 139.073 3.49844C139.173 3.38784 139.296 3.30052 139.436 3.23649C139.583 3.17246 139.741 3.14336 139.923 3.14336C140.105 3.14336 140.269 3.17246 140.41 3.23649C140.556 3.30052 140.674 3.38784 140.773 3.49844C140.873 3.60903 140.949 3.74291 141.002 3.88844C141.055 4.03978 141.084 4.20277 141.084 4.3774C141.084 4.55202 141.061 4.70919 141.002 4.85471C140.949 5.00024 140.873 5.1283 140.773 5.23889C140.674 5.34949 140.55 5.43681 140.41 5.49501C140.269 5.55905 140.105 5.58815 139.923 5.58815C139.741 5.58815 139.577 5.55905 139.436 5.49501C139.29 5.43098 139.173 5.34949 139.073 5.23889C138.973 5.1283 138.897 5.00024 138.844 4.85471C138.791 4.70919 138.768 4.5462 138.768 4.3774C138.768 4.20859 138.791 4.03978 138.844 3.88844ZM139.319 4.66262C139.343 4.75576 139.378 4.83725 139.431 4.91292C139.483 4.98859 139.548 5.0468 139.63 5.09337C139.712 5.13994 139.812 5.16322 139.929 5.16322C140.046 5.16322 140.146 5.13994 140.228 5.09337C140.31 5.0468 140.375 4.98859 140.427 4.91292C140.48 4.83725 140.515 4.75576 140.539 4.66262C140.562 4.56949 140.574 4.47635 140.574 4.3774C140.574 4.27844 140.562 4.17366 140.539 4.08053C140.515 3.98157 140.48 3.90008 140.427 3.82441C140.375 3.74874 140.31 3.69053 140.228 3.64396C140.146 3.59739 140.046 3.57411 139.929 3.57411C139.812 3.57411 139.712 3.59739 139.63 3.64396C139.548 3.69053 139.483 3.74874 139.431 3.82441C139.378 3.90008 139.343 3.98739 139.319 4.08053C139.296 4.17948 139.284 4.27844 139.284 4.3774C139.284 4.47635 139.296 4.56949 139.319 4.66262Z" fill="white"/>
<path d="M142.015 3.1889L143 4.76055H143.006V3.1889H143.493V5.53473H142.971L141.986 3.96308H141.98V5.53473H141.493V3.1889H142.015Z" fill="white"/>
<path d="M96.3928 7.35737L97.2782 9.70321H96.7387L96.5628 9.17932H95.6775L95.4898 9.70321H94.968L95.8592 7.35737H96.3928ZM96.4221 8.79514L96.1231 7.93364H96.1172L95.8123 8.79514H96.4221Z" fill="white"/>
<path d="M97.9821 7.35737L98.9671 8.92902H98.973V7.35737H99.4596V9.70321H98.9378L97.9528 8.13155H97.9469V9.70321H97.4603V7.35737H97.9821Z" fill="white"/>
<path d="M100.921 7.3575C101.073 7.3575 101.214 7.38078 101.349 7.42735C101.478 7.47392 101.595 7.54959 101.689 7.64272C101.783 7.74168 101.859 7.8581 101.912 8.00362C101.965 8.14914 101.994 8.31795 101.994 8.51004C101.994 8.67885 101.971 8.83602 101.929 8.98154C101.883 9.12706 101.818 9.2493 101.73 9.35408C101.642 9.45885 101.531 9.54035 101.396 9.60438C101.261 9.66259 101.103 9.69751 100.927 9.69751H99.9066V7.35168H100.927L100.921 7.3575ZM100.886 9.26676C100.962 9.26676 101.032 9.25512 101.103 9.23184C101.173 9.20855 101.238 9.16781 101.29 9.1096C101.343 9.05139 101.39 8.98154 101.425 8.8884C101.46 8.80109 101.472 8.69049 101.472 8.56243C101.472 8.44601 101.46 8.33541 101.437 8.24228C101.413 8.14914 101.378 8.06765 101.326 7.9978C101.273 7.92795 101.202 7.87556 101.114 7.84064C101.027 7.80571 100.921 7.78825 100.792 7.78825H100.423V9.26676H100.886Z" fill="white"/>
<path d="M105.07 7.98124C105.041 7.93467 105 7.8881 104.953 7.85318C104.906 7.81825 104.853 7.78915 104.795 7.76587C104.736 7.74258 104.677 7.73676 104.613 7.73676C104.495 7.73676 104.396 7.76004 104.314 7.80661C104.232 7.85318 104.167 7.91139 104.114 7.98706C104.062 8.06273 104.026 8.15005 104.003 8.24318C103.98 8.34214 103.968 8.44109 103.968 8.54005C103.968 8.639 103.98 8.73214 104.003 8.82527C104.026 8.91841 104.062 8.9999 104.114 9.07557C104.167 9.15125 104.232 9.20946 104.314 9.25602C104.396 9.30259 104.495 9.32587 104.613 9.32587C104.771 9.32587 104.894 9.27931 104.982 9.18035C105.07 9.08139 105.129 8.95916 105.146 8.80199H105.651C105.639 8.94751 105.604 9.0814 105.551 9.19781C105.498 9.31423 105.422 9.41901 105.334 9.5005C105.246 9.58199 105.14 9.64603 105.017 9.69259C104.894 9.73916 104.765 9.75662 104.619 9.75662C104.437 9.75662 104.273 9.72752 104.132 9.66349C103.985 9.59946 103.868 9.51797 103.768 9.40737C103.669 9.29677 103.593 9.16871 103.54 9.02319C103.487 8.87766 103.458 8.71468 103.458 8.54587C103.458 8.37706 103.487 8.20826 103.54 8.05691C103.593 7.90557 103.669 7.77751 103.768 7.66691C103.868 7.55631 103.991 7.469 104.132 7.40497C104.279 7.34094 104.437 7.31183 104.619 7.31183C104.748 7.31183 104.871 7.3293 104.988 7.37004C105.105 7.40497 105.205 7.46318 105.299 7.53303C105.393 7.60288 105.469 7.69019 105.527 7.79497C105.586 7.89975 105.627 8.02199 105.639 8.15587H105.135C105.123 8.09766 105.105 8.03945 105.076 7.99288L105.07 7.98124Z" fill="white"/>
<path d="M105.967 8.05122C106.02 7.89987 106.096 7.77181 106.196 7.66122C106.295 7.55062 106.418 7.46331 106.559 7.39928C106.706 7.33525 106.864 7.30614 107.046 7.30614C107.228 7.30614 107.392 7.33525 107.533 7.39928C107.673 7.46331 107.796 7.55062 107.896 7.66122C107.996 7.77181 108.072 7.9057 108.125 8.05122C108.177 8.19674 108.207 8.36555 108.207 8.54018C108.207 8.71481 108.183 8.87197 108.125 9.01749C108.066 9.16302 107.996 9.2969 107.896 9.40168C107.796 9.51227 107.673 9.59959 107.533 9.6578C107.392 9.72183 107.228 9.75093 107.046 9.75093C106.864 9.75093 106.7 9.72183 106.559 9.6578C106.413 9.59377 106.295 9.51227 106.196 9.40168C106.096 9.29108 106.02 9.16302 105.967 9.01749C105.914 8.87197 105.885 8.70898 105.885 8.54018C105.885 8.37137 105.914 8.20256 105.967 8.05122ZM106.442 8.8254C106.465 8.91854 106.501 9.00003 106.553 9.0757C106.606 9.15138 106.671 9.20958 106.753 9.25615C106.835 9.30272 106.934 9.326 107.052 9.326C107.169 9.326 107.269 9.30272 107.351 9.25615C107.433 9.20958 107.497 9.15138 107.55 9.0757C107.603 9.00003 107.638 8.91854 107.662 8.8254C107.685 8.73227 107.697 8.63913 107.697 8.54018C107.697 8.44122 107.685 8.33644 107.662 8.24331C107.638 8.14435 107.603 8.06286 107.55 7.98719C107.497 7.91152 107.433 7.85331 107.351 7.80674C107.269 7.76017 107.169 7.73689 107.052 7.73689C106.934 7.73689 106.835 7.76017 106.753 7.80674C106.671 7.85331 106.606 7.91152 106.553 7.98719C106.501 8.06286 106.465 8.15018 106.442 8.24331C106.419 8.34227 106.407 8.44122 106.407 8.54018C106.407 8.63913 106.419 8.73227 106.442 8.8254Z" fill="white"/>
<path d="M109.061 7.35737L110.046 8.92902H110.052V7.35737H110.539V9.70321H110.023L109.038 8.13155H109.032V9.70321H108.545V7.35737H109.061Z" fill="white"/>
<path d="M112.645 7.35737V7.79394H111.502V8.33529H112.493V8.73693H111.502V9.70321H110.98V7.35737H112.645Z" fill="white"/>
<path d="M114.7 7.35737V7.79394H113.452V8.29454H114.595V8.69618H113.452V9.27246H114.724V9.70903H112.93V7.36319H114.695L114.7 7.35737Z" fill="white"/>
<path d="M116.333 7.3575C116.439 7.3575 116.533 7.37496 116.621 7.40989C116.703 7.44481 116.779 7.49138 116.838 7.54959C116.896 7.6078 116.943 7.67765 116.978 7.75332C117.008 7.82899 117.025 7.91631 117.025 8.00362C117.025 8.14332 116.996 8.25974 116.937 8.36452C116.879 8.4693 116.785 8.53915 116.65 8.59154C116.715 8.61482 116.767 8.64392 116.808 8.67885C116.849 8.71378 116.885 8.76034 116.908 8.80691C116.932 8.85348 116.955 8.91169 116.967 8.9699C116.978 9.02811 116.99 9.08632 116.99 9.14452C116.99 9.17945 116.99 9.22602 116.996 9.27841C116.996 9.33079 116.996 9.37736 117.008 9.42975C117.008 9.48214 117.019 9.53453 117.031 9.58109C117.043 9.62766 117.061 9.66841 117.084 9.70333H116.562C116.533 9.62766 116.515 9.54035 116.509 9.43557C116.503 9.33079 116.492 9.23184 116.48 9.1387C116.462 9.01646 116.427 8.92915 116.369 8.87094C116.31 8.81273 116.216 8.78363 116.087 8.78363H115.565V9.69751H115.044V7.35168H116.316L116.333 7.3575ZM116.152 8.41691C116.269 8.41691 116.363 8.39362 116.421 8.33541C116.48 8.28303 116.509 8.19571 116.509 8.07929C116.509 7.96288 116.48 7.88138 116.421 7.82899C116.363 7.77661 116.275 7.75332 116.152 7.75332H115.583V8.41109H116.152V8.41691Z" fill="white"/>
<path d="M119.207 7.35737V7.79394H117.958V8.29454H119.102V8.69618H117.958V9.27246H119.231V9.70903H117.436V7.36319H119.201L119.207 7.35737Z" fill="white"/>
<path d="M120.084 7.35737L121.069 8.92902H121.074V7.35737H121.561V9.70321H121.039L120.054 8.13155H120.048V9.70321H119.562V7.35737H120.084Z" fill="white"/>
<path d="M123.519 7.98124C123.49 7.93467 123.449 7.8881 123.402 7.85318C123.355 7.81825 123.302 7.78915 123.243 7.76587C123.185 7.74258 123.126 7.73676 123.062 7.73676C122.944 7.73676 122.845 7.76004 122.763 7.80661C122.681 7.85318 122.616 7.91139 122.563 7.98706C122.511 8.06273 122.475 8.15005 122.452 8.24318C122.428 8.34214 122.417 8.44109 122.417 8.54005C122.417 8.639 122.428 8.73214 122.452 8.82527C122.475 8.91841 122.511 8.9999 122.563 9.07557C122.616 9.15125 122.681 9.20946 122.763 9.25602C122.845 9.30259 122.944 9.32587 123.062 9.32587C123.22 9.32587 123.343 9.27931 123.431 9.18035C123.519 9.08139 123.578 8.95916 123.595 8.80199H124.1C124.088 8.94751 124.053 9.0814 124 9.19781C123.947 9.31423 123.871 9.41901 123.783 9.5005C123.695 9.58199 123.589 9.64603 123.466 9.69259C123.343 9.73916 123.214 9.75662 123.068 9.75662C122.886 9.75662 122.722 9.72752 122.581 9.66349C122.44 9.59946 122.317 9.51797 122.217 9.40737C122.118 9.29677 122.041 9.16871 121.989 9.02319C121.936 8.87766 121.912 8.71468 121.912 8.54587C121.912 8.37706 121.936 8.20826 121.989 8.05691C122.041 7.90557 122.118 7.77751 122.217 7.66691C122.317 7.55631 122.44 7.469 122.581 7.40497C122.727 7.34094 122.886 7.31183 123.068 7.31183C123.197 7.31183 123.32 7.3293 123.437 7.37004C123.554 7.40497 123.66 7.46318 123.748 7.53303C123.842 7.60288 123.912 7.69019 123.976 7.79497C124.041 7.89975 124.076 8.02199 124.088 8.15587H123.584C123.572 8.09766 123.554 8.03945 123.525 7.99288L123.519 7.98124Z" fill="white"/>
<path d="M126.202 7.35737V7.79394H124.953V8.29454H126.097V8.69618H124.953V9.27246H126.226V9.70903H124.431V7.36319H126.196L126.202 7.35737Z" fill="white"/>
<path d="M127.753 8.05122C127.806 7.89987 127.882 7.77181 127.982 7.66122C128.081 7.55062 128.204 7.46331 128.345 7.39928C128.492 7.33525 128.65 7.30614 128.832 7.30614C129.014 7.30614 129.178 7.33525 129.318 7.39928C129.465 7.46331 129.582 7.55062 129.682 7.66122C129.782 7.77181 129.858 7.9057 129.911 8.05122C129.963 8.20256 129.993 8.36555 129.993 8.54018C129.993 8.71481 129.969 8.87197 129.911 9.01749C129.858 9.16302 129.782 9.2969 129.682 9.40168C129.582 9.51227 129.459 9.59959 129.318 9.6578C129.178 9.72183 129.014 9.75093 128.832 9.75093C128.65 9.75093 128.486 9.72183 128.345 9.6578C128.204 9.59377 128.081 9.51227 127.982 9.40168C127.882 9.29108 127.806 9.16302 127.753 9.01749C127.7 8.87197 127.677 8.70898 127.677 8.54018C127.677 8.37137 127.7 8.20256 127.753 8.05122ZM128.228 8.8254C128.251 8.91854 128.287 9.00003 128.339 9.0757C128.392 9.15138 128.457 9.20958 128.539 9.25615C128.621 9.30272 128.72 9.326 128.838 9.326C128.955 9.326 129.055 9.30272 129.137 9.25615C129.219 9.20958 129.283 9.15138 129.336 9.0757C129.389 9.00003 129.424 8.91854 129.447 8.8254C129.471 8.73227 129.483 8.63913 129.483 8.54018C129.483 8.44122 129.471 8.33644 129.447 8.24331C129.424 8.14435 129.389 8.06286 129.336 7.98719C129.283 7.91152 129.219 7.85331 129.137 7.80674C129.055 7.76017 128.955 7.73689 128.838 7.73689C128.72 7.73689 128.621 7.76017 128.539 7.80674C128.457 7.85331 128.392 7.91152 128.339 7.98719C128.287 8.06286 128.251 8.15018 128.228 8.24331C128.204 8.34227 128.193 8.44122 128.193 8.54018C128.193 8.63913 128.204 8.73227 128.228 8.8254Z" fill="white"/>
<path d="M130.851 7.35737L131.836 8.92902H131.842V7.35737H132.329V9.70321H131.807L130.822 8.13155H130.816V9.70321H130.33V7.35737H130.851Z" fill="white"/>
<path d="M134.505 9.70321L133.743 7.35737H134.277L134.804 9.00469H134.81L135.344 7.35737H135.877L135.092 9.70321H134.505Z" fill="white"/>
<path d="M137.083 7.35737L137.968 9.70321H137.429L137.253 9.17932H136.367L136.18 9.70321H135.658L136.549 7.35737H137.083ZM137.112 8.79514L136.813 7.93364H136.807L136.502 8.79514H137.112Z" fill="white"/>
<path d="M138.68 7.35737V9.26664H139.829V9.70321H138.158V7.35737H138.68Z" fill="white"/>
<path d="M140.323 9.70321L139.561 7.35737H140.094L140.622 9.00469H140.628L141.161 7.35737H141.695L140.909 9.70321H140.323Z" fill="white"/>
<path d="M143.648 7.35737V7.79394H142.399V8.29454H143.542V8.69618H142.399V9.27246H143.671V9.70903H141.877V7.36319H143.642L143.648 7.35737Z" fill="white"/>
<path d="M83.6057 11.5183L84.4911 13.8641H83.9517L83.7758 13.3402H82.8904L82.7028 13.8641H82.181L83.0722 11.5183H83.6057ZM83.6351 12.9561L83.336 12.0946H83.3302L83.0253 12.9561H83.6351Z" fill="white"/>
<path d="M85.1836 11.5183L86.1686 13.0899H86.1745V11.5183H86.6611V13.8641H86.1393L85.1543 12.2925H85.1484V13.8641H84.6617V11.5183H85.1836Z" fill="white"/>
<path d="M88.1033 11.5203C88.2558 11.5203 88.3965 11.5436 88.5314 11.5902C88.6604 11.6367 88.7776 11.7124 88.8714 11.8055C88.9653 11.9045 89.0415 12.0209 89.0942 12.1664C89.147 12.312 89.1763 12.4808 89.1763 12.6729C89.1763 12.8417 89.1529 12.9988 89.1118 13.1444C89.0649 13.2899 89.0004 13.4121 88.9125 13.5169C88.8245 13.6217 88.7131 13.7032 88.5783 13.7672C88.4434 13.8254 88.2851 13.8603 88.1092 13.8603H87.089V11.5145H88.1092L88.1033 11.5203ZM88.0682 13.4354C88.1444 13.4354 88.2148 13.4238 88.2851 13.4005C88.3555 13.3772 88.42 13.3365 88.4727 13.2782C88.5255 13.22 88.5724 13.1502 88.6076 13.057C88.6428 12.9697 88.6545 12.8591 88.6545 12.7311C88.6545 12.6147 88.6428 12.5041 88.6193 12.4109C88.5959 12.3178 88.5607 12.2363 88.5079 12.1664C88.4551 12.0966 88.3848 12.0442 88.2968 12.0093C88.2089 11.9744 88.1033 11.9569 87.9743 11.9569H87.605V13.4354H88.0682Z" fill="white"/>
<path d="M92.0912 11.5183V11.9549H90.9478V12.4962H91.9387V12.8979H90.9478V13.8641H90.426V11.5183H92.0912Z" fill="white"/>
<path d="M92.882 11.5183V13.4276H94.0312V13.8641H92.3602V11.5183H92.882Z" fill="white"/>
<path d="M94.2694 12.2178C94.3221 12.0665 94.3984 11.9384 94.498 11.8278C94.5977 11.7172 94.7208 11.6299 94.8616 11.5659C95.0081 11.5019 95.1665 11.4728 95.3482 11.4728C95.53 11.4728 95.6942 11.5019 95.8349 11.5659C95.9756 11.6299 96.0987 11.7172 96.1984 11.8278C96.2981 11.9384 96.3743 12.0723 96.4271 12.2178C96.4798 12.3634 96.5092 12.5322 96.5092 12.7068C96.5092 12.8814 96.4857 13.0386 96.4271 13.1841C96.3684 13.3296 96.2981 13.4635 96.1984 13.5683C96.0987 13.6789 95.9756 13.7662 95.8349 13.8244C95.6942 13.8884 95.53 13.9175 95.3482 13.9175C95.1665 13.9175 95.0023 13.8884 94.8616 13.8244C94.715 13.7604 94.5977 13.6789 94.498 13.5683C94.3984 13.4577 94.3221 13.3296 94.2694 13.1841C94.2166 13.0386 94.1873 12.8756 94.1873 12.7068C94.1873 12.538 94.2166 12.3692 94.2694 12.2178ZM94.7443 12.992C94.7678 13.0852 94.8029 13.1666 94.8557 13.2423C94.9085 13.318 94.973 13.3762 95.0551 13.4228C95.1371 13.4693 95.2368 13.4926 95.3541 13.4926C95.4714 13.4926 95.571 13.4693 95.6531 13.4228C95.7352 13.3762 95.7997 13.318 95.8525 13.2423C95.9052 13.1666 95.9404 13.0852 95.9639 12.992C95.9873 12.8989 95.9991 12.8058 95.9991 12.7068C95.9991 12.6078 95.9873 12.5031 95.9639 12.4099C95.9404 12.311 95.9052 12.2295 95.8525 12.1538C95.7997 12.0781 95.7352 12.0199 95.6531 11.9734C95.571 11.9268 95.4714 11.9035 95.3541 11.9035C95.2368 11.9035 95.1371 11.9268 95.0551 11.9734C94.973 12.0199 94.9085 12.0781 94.8557 12.1538C94.8029 12.2295 94.7678 12.3168 94.7443 12.4099C94.7208 12.5089 94.7091 12.6078 94.7091 12.7068C94.7091 12.8058 94.7208 12.8989 94.7443 12.992Z" fill="white"/>
<path d="M98.567 13.8641L98.1683 12.2692H98.1625L97.7696 13.8641H97.2419L96.6145 11.5183H97.1364L97.5116 13.1132H97.5175L97.9279 11.5183H98.4146L98.8192 13.1365H98.825L99.212 11.5183H99.7221L99.0889 13.8641H98.567Z" fill="white"/>
<path d="M102.367 12.1479C102.337 12.1013 102.296 12.0547 102.249 12.0198C102.202 11.9849 102.15 11.9558 102.091 11.9325C102.032 11.9092 101.974 11.9034 101.909 11.9034C101.792 11.9034 101.692 11.9267 101.61 11.9732C101.528 12.0198 101.464 12.078 101.411 12.1537C101.358 12.2294 101.323 12.3167 101.3 12.4098C101.276 12.5088 101.264 12.6077 101.264 12.7067C101.264 12.8056 101.276 12.8988 101.3 12.9919C101.323 13.085 101.358 13.1665 101.411 13.2422C101.464 13.3179 101.528 13.3761 101.61 13.4226C101.692 13.4692 101.792 13.4925 101.909 13.4925C102.068 13.4925 102.191 13.4459 102.279 13.347C102.367 13.248 102.425 13.1258 102.443 12.9686H102.947C102.935 13.1141 102.9 13.248 102.847 13.3644C102.795 13.4809 102.718 13.5856 102.631 13.6671C102.543 13.7486 102.437 13.8126 102.314 13.8592C102.191 13.9058 102.062 13.9232 101.915 13.9232C101.733 13.9232 101.569 13.8941 101.429 13.8301C101.282 13.7661 101.165 13.6846 101.065 13.574C100.965 13.4634 100.889 13.3353 100.836 13.1898C100.784 13.0443 100.754 12.8813 100.754 12.7125C100.754 12.5437 100.784 12.3749 100.836 12.2235C100.889 12.0722 100.965 11.9441 101.065 11.8335C101.165 11.7229 101.288 11.6356 101.429 11.5716C101.575 11.5076 101.733 11.4784 101.915 11.4784C102.044 11.4784 102.167 11.4959 102.285 11.5367C102.402 11.5716 102.502 11.6298 102.595 11.6996C102.689 11.7695 102.765 11.8568 102.824 11.9616C102.883 12.0664 102.924 12.1886 102.935 12.3225H102.431C102.419 12.2643 102.402 12.2061 102.373 12.1595L102.367 12.1479Z" fill="white"/>
<path d="M103.248 12.2178C103.301 12.0665 103.377 11.9384 103.477 11.8278C103.577 11.7172 103.7 11.6299 103.841 11.5659C103.987 11.5019 104.145 11.4728 104.327 11.4728C104.509 11.4728 104.673 11.5019 104.814 11.5659C104.955 11.6299 105.078 11.7172 105.177 11.8278C105.277 11.9384 105.353 12.0723 105.406 12.2178C105.459 12.3634 105.488 12.5322 105.488 12.7068C105.488 12.8814 105.465 13.0386 105.406 13.1841C105.347 13.3296 105.277 13.4635 105.177 13.5683C105.078 13.6789 104.955 13.7662 104.814 13.8244C104.673 13.8884 104.509 13.9175 104.327 13.9175C104.145 13.9175 103.981 13.8884 103.841 13.8244C103.694 13.7604 103.577 13.6789 103.477 13.5683C103.377 13.4577 103.301 13.3296 103.248 13.1841C103.196 13.0386 103.166 12.8756 103.166 12.7068C103.166 12.538 103.196 12.3692 103.248 12.2178ZM103.723 12.992C103.747 13.0852 103.782 13.1666 103.835 13.2423C103.887 13.318 103.952 13.3762 104.034 13.4228C104.116 13.4693 104.216 13.4926 104.333 13.4926C104.45 13.4926 104.55 13.4693 104.632 13.4228C104.714 13.3762 104.779 13.318 104.831 13.2423C104.884 13.1666 104.919 13.0852 104.943 12.992C104.966 12.8989 104.978 12.8058 104.978 12.7068C104.978 12.6078 104.966 12.5031 104.943 12.4099C104.919 12.311 104.884 12.2295 104.831 12.1538C104.779 12.0781 104.714 12.0199 104.632 11.9734C104.55 11.9268 104.45 11.9035 104.333 11.9035C104.216 11.9035 104.116 11.9268 104.034 11.9734C103.952 12.0199 103.887 12.0781 103.835 12.1538C103.782 12.2295 103.747 12.3168 103.723 12.4099C103.7 12.5089 103.688 12.6078 103.688 12.7068C103.688 12.8058 103.7 12.8989 103.723 12.992Z" fill="white"/>
<path d="M106.329 11.5183L107.314 13.0899H107.32V11.5183H107.807V13.8641H107.285L106.3 12.2925H106.294V13.8641H105.808V11.5183H106.329Z" fill="white"/>
<path d="M108.05 11.9549V11.5183H109.984V11.9549H109.275V13.8641H108.753V11.9549H108.044H108.05Z" fill="white"/>
<path d="M111.489 11.5203C111.595 11.5203 111.689 11.5378 111.777 11.5727C111.859 11.6076 111.935 11.6542 111.994 11.7124C112.052 11.7706 112.099 11.8405 112.134 11.9161C112.164 11.9918 112.181 12.0791 112.181 12.1664C112.181 12.3061 112.152 12.4226 112.093 12.5273C112.035 12.6321 111.941 12.702 111.806 12.7544C111.871 12.7776 111.923 12.8067 111.964 12.8417C112.005 12.8766 112.041 12.9232 112.064 12.9697C112.088 13.0163 112.111 13.0745 112.123 13.1327C112.134 13.1909 112.146 13.2491 112.146 13.3073C112.146 13.3423 112.146 13.3888 112.152 13.4412C112.152 13.4936 112.152 13.5402 112.164 13.5926C112.164 13.645 112.175 13.6974 112.187 13.7439C112.199 13.7905 112.217 13.8312 112.24 13.8662H111.718C111.689 13.7905 111.671 13.7032 111.665 13.5984C111.66 13.4936 111.648 13.3947 111.636 13.3015C111.618 13.1793 111.583 13.092 111.525 13.0338C111.466 12.9756 111.372 12.9464 111.243 12.9464H110.721V13.8603H110.2V11.5145H111.472L111.489 11.5203ZM111.308 12.5797C111.425 12.5797 111.519 12.5564 111.577 12.4982C111.636 12.4458 111.665 12.3585 111.665 12.2421C111.665 12.1257 111.636 12.0442 111.577 11.9918C111.519 11.9394 111.431 11.9161 111.308 11.9161H110.739V12.5739H111.308V12.5797Z" fill="white"/>
<path d="M112.554 12.2178C112.607 12.0665 112.683 11.9384 112.783 11.8278C112.882 11.7172 113.005 11.6299 113.146 11.5659C113.293 11.5019 113.451 11.4728 113.633 11.4728C113.815 11.4728 113.979 11.5019 114.119 11.5659C114.266 11.6299 114.383 11.7172 114.483 11.8278C114.583 11.9384 114.659 12.0723 114.712 12.2178C114.764 12.3692 114.794 12.5322 114.794 12.7068C114.794 12.8814 114.77 13.0386 114.712 13.1841C114.659 13.3296 114.583 13.4635 114.483 13.5683C114.383 13.6789 114.26 13.7662 114.119 13.8244C113.979 13.8884 113.815 13.9175 113.633 13.9175C113.451 13.9175 113.287 13.8884 113.146 13.8244C113.005 13.7604 112.882 13.6789 112.783 13.5683C112.683 13.4577 112.607 13.3296 112.554 13.1841C112.501 13.0386 112.478 12.8756 112.478 12.7068C112.478 12.538 112.501 12.3692 112.554 12.2178ZM113.029 12.992C113.052 13.0852 113.088 13.1666 113.14 13.2423C113.193 13.318 113.258 13.3762 113.34 13.4228C113.422 13.4693 113.521 13.4926 113.639 13.4926C113.756 13.4926 113.856 13.4693 113.938 13.4228C114.02 13.3762 114.084 13.318 114.137 13.2423C114.19 13.1666 114.225 13.0852 114.248 12.992C114.272 12.8989 114.284 12.8058 114.284 12.7068C114.284 12.6078 114.272 12.5031 114.248 12.4099C114.225 12.311 114.19 12.2295 114.137 12.1538C114.084 12.0781 114.02 12.0199 113.938 11.9734C113.856 11.9268 113.756 11.9035 113.639 11.9035C113.521 11.9035 113.422 11.9268 113.34 11.9734C113.258 12.0199 113.193 12.0781 113.14 12.1538C113.088 12.2295 113.052 12.3168 113.029 12.4099C113.005 12.5089 112.994 12.6078 112.994 12.7068C112.994 12.8058 113.005 12.8989 113.029 12.992Z" fill="white"/>
<path d="M115.641 11.5183V13.4276H116.79V13.8641H115.119V11.5183H115.641Z" fill="white"/>
<path d="M117.793 11.9549V11.5183H119.728V11.9549H119.018V13.8641H118.497V11.9549H117.787H117.793Z" fill="white"/>
<path d="M121.737 11.5183V11.9549H120.488V12.4555H121.631V12.8571H120.488V13.4334H121.76V13.87H119.966V11.5241H121.731L121.737 11.5183Z" fill="white"/>
<path d="M123.591 12.1479C123.561 12.1013 123.52 12.0547 123.473 12.0198C123.427 11.9849 123.374 11.9558 123.315 11.9325C123.257 11.9092 123.198 11.9034 123.133 11.9034C123.016 11.9034 122.916 11.9267 122.834 11.9732C122.752 12.0198 122.688 12.078 122.635 12.1537C122.582 12.2294 122.547 12.3167 122.524 12.4098C122.5 12.5088 122.488 12.6077 122.488 12.7067C122.488 12.8056 122.5 12.8988 122.524 12.9919C122.547 13.085 122.582 13.1665 122.635 13.2422C122.688 13.3179 122.752 13.3761 122.834 13.4226C122.916 13.4692 123.016 13.4925 123.133 13.4925C123.292 13.4925 123.415 13.4459 123.503 13.347C123.591 13.248 123.649 13.1258 123.667 12.9686H124.171C124.159 13.1141 124.124 13.248 124.072 13.3644C124.019 13.4809 123.943 13.5856 123.855 13.6671C123.767 13.7486 123.661 13.8126 123.538 13.8592C123.415 13.9058 123.286 13.9232 123.139 13.9232C122.957 13.9232 122.793 13.8941 122.653 13.8301C122.512 13.7661 122.389 13.6846 122.289 13.574C122.189 13.4634 122.113 13.3353 122.06 13.1898C122.008 13.0443 121.984 12.8813 121.984 12.7125C121.984 12.5437 122.008 12.3749 122.06 12.2235C122.113 12.0722 122.189 11.9441 122.289 11.8335C122.389 11.7229 122.512 11.6356 122.653 11.5716C122.799 11.5076 122.957 11.4784 123.139 11.4784C123.268 11.4784 123.391 11.4959 123.509 11.5367C123.626 11.5716 123.731 11.6298 123.819 11.6996C123.913 11.7695 123.984 11.8568 124.048 11.9616C124.113 12.0664 124.148 12.1886 124.159 12.3225H123.655C123.643 12.2643 123.626 12.2061 123.597 12.1595L123.591 12.1479Z" fill="white"/>
<path d="M125.021 11.5183V12.4205H125.977V11.5183H126.499V13.8641H125.977V12.8513H125.021V13.8641H124.499V11.5183H125.021Z" fill="white"/>
<path d="M127.433 11.5183L128.418 13.0899H128.424V11.5183H128.911V13.8641H128.389L127.404 12.2925H127.398V13.8641H126.911V11.5183H127.433Z" fill="white"/>
<path d="M129.319 12.2178C129.372 12.0665 129.448 11.9384 129.548 11.8278C129.648 11.7172 129.771 11.6299 129.911 11.5659C130.058 11.5019 130.216 11.4728 130.398 11.4728C130.58 11.4728 130.744 11.5019 130.885 11.5659C131.031 11.6299 131.149 11.7172 131.248 11.8278C131.348 11.9384 131.424 12.0723 131.477 12.2178C131.53 12.3692 131.559 12.5322 131.559 12.7068C131.559 12.8814 131.536 13.0386 131.477 13.1841C131.424 13.3296 131.348 13.4635 131.248 13.5683C131.149 13.6789 131.025 13.7662 130.885 13.8244C130.744 13.8884 130.58 13.9175 130.398 13.9175C130.216 13.9175 130.052 13.8884 129.911 13.8244C129.771 13.7604 129.648 13.6789 129.548 13.5683C129.448 13.4577 129.372 13.3296 129.319 13.1841C129.266 13.0386 129.243 12.8756 129.243 12.7068C129.243 12.538 129.266 12.3692 129.319 12.2178ZM129.794 12.992C129.818 13.0852 129.853 13.1666 129.906 13.2423C129.958 13.318 130.023 13.3762 130.105 13.4228C130.187 13.4693 130.287 13.4926 130.404 13.4926C130.521 13.4926 130.621 13.4693 130.703 13.4228C130.785 13.3762 130.85 13.318 130.902 13.2423C130.955 13.1666 130.99 13.0852 131.014 12.992C131.037 12.8989 131.049 12.8058 131.049 12.7068C131.049 12.6078 131.037 12.5031 131.014 12.4099C130.99 12.311 130.955 12.2295 130.902 12.1538C130.85 12.0781 130.785 12.0199 130.703 11.9734C130.621 11.9268 130.521 11.9035 130.404 11.9035C130.287 11.9035 130.187 11.9268 130.105 11.9734C130.023 12.0199 129.958 12.0781 129.906 12.1538C129.853 12.2295 129.818 12.3168 129.794 12.4099C129.771 12.5089 129.759 12.6078 129.759 12.7068C129.759 12.8058 129.771 12.8989 129.794 12.992Z" fill="white"/>
<path d="M132.402 11.5183V13.4276H133.552V13.8641H131.88V11.5183H132.402Z" fill="white"/>
<path d="M133.788 12.2178C133.84 12.0665 133.917 11.9384 134.016 11.8278C134.116 11.7172 134.239 11.6299 134.38 11.5659C134.526 11.5019 134.685 11.4728 134.867 11.4728C135.048 11.4728 135.212 11.5019 135.353 11.5659C135.5 11.6299 135.617 11.7172 135.717 11.8278C135.816 11.9384 135.893 12.0723 135.945 12.2178C135.998 12.3692 136.027 12.5322 136.027 12.7068C136.027 12.8814 136.004 13.0386 135.945 13.1841C135.893 13.3296 135.816 13.4635 135.717 13.5683C135.617 13.6789 135.494 13.7662 135.353 13.8244C135.212 13.8884 135.048 13.9175 134.867 13.9175C134.685 13.9175 134.521 13.8884 134.38 13.8244C134.239 13.7604 134.116 13.6789 134.016 13.5683C133.917 13.4577 133.84 13.3296 133.788 13.1841C133.735 13.0386 133.711 12.8756 133.711 12.7068C133.711 12.538 133.735 12.3692 133.788 12.2178ZM134.263 12.992C134.286 13.0852 134.321 13.1666 134.374 13.2423C134.427 13.318 134.491 13.3762 134.573 13.4228C134.655 13.4693 134.755 13.4926 134.872 13.4926C134.99 13.4926 135.089 13.4693 135.171 13.4228C135.254 13.3762 135.318 13.318 135.371 13.2423C135.424 13.1666 135.459 13.0852 135.482 12.992C135.506 12.8989 135.517 12.8058 135.517 12.7068C135.517 12.6078 135.506 12.5031 135.482 12.4099C135.459 12.311 135.424 12.2295 135.371 12.1538C135.318 12.0781 135.254 12.0199 135.171 11.9734C135.089 11.9268 134.99 11.9035 134.872 11.9035C134.755 11.9035 134.655 11.9268 134.573 11.9734C134.491 12.0199 134.427 12.0781 134.374 12.1538C134.321 12.2295 134.286 12.3168 134.263 12.4099C134.239 12.5089 134.227 12.6078 134.227 12.7068C134.227 12.8058 134.239 12.8989 134.263 12.992Z" fill="white"/>
<path d="M137.756 13.8477C137.645 13.8943 137.533 13.9175 137.416 13.9175C137.234 13.9175 137.07 13.8884 136.929 13.8244C136.789 13.7604 136.666 13.6789 136.566 13.5683C136.466 13.4577 136.39 13.3296 136.337 13.1841C136.284 13.0386 136.261 12.8756 136.261 12.7068C136.261 12.538 136.284 12.3692 136.337 12.2178C136.39 12.0665 136.466 11.9384 136.566 11.8278C136.666 11.7172 136.789 11.6299 136.929 11.5659C137.076 11.5019 137.234 11.4728 137.416 11.4728C137.539 11.4728 137.656 11.4902 137.768 11.5251C137.879 11.5601 137.985 11.6125 138.073 11.6823C138.167 11.7522 138.243 11.8395 138.301 11.9443C138.36 12.049 138.395 12.1654 138.413 12.2993H137.914C137.885 12.1654 137.827 12.0665 137.739 12.0025C137.651 11.9384 137.545 11.9035 137.416 11.9035C137.299 11.9035 137.199 11.9268 137.117 11.9734C137.035 12.0199 136.97 12.0781 136.918 12.1538C136.865 12.2295 136.83 12.3168 136.806 12.4099C136.783 12.5089 136.771 12.6078 136.771 12.7068C136.771 12.8058 136.783 12.8989 136.806 12.992C136.83 13.0852 136.865 13.1666 136.918 13.2423C136.97 13.318 137.035 13.3762 137.117 13.4228C137.199 13.4693 137.299 13.4926 137.416 13.4926C137.586 13.4926 137.721 13.4519 137.815 13.3646C137.909 13.2772 137.961 13.155 137.979 12.9862H137.457V12.602H138.448V13.871H138.12L138.067 13.6032C137.973 13.7196 137.873 13.8011 137.756 13.8535V13.8477Z" fill="white"/>
<path d="M139.355 11.5183V13.8641H138.834V11.5183H139.355Z" fill="white"/>
<path d="M141.548 11.5183V11.9549H140.299V12.4555H141.443V12.8571H140.299V13.4334H141.572V13.87H139.778V11.5241H141.543L141.548 11.5183Z" fill="white"/>
<path d="M142.292 13.289C142.321 13.3414 142.356 13.388 142.403 13.4229C142.45 13.4578 142.509 13.4811 142.573 13.4986C142.638 13.516 142.702 13.5219 142.773 13.5219C142.819 13.5219 142.866 13.5219 142.919 13.5102C142.972 13.5044 143.019 13.4869 143.066 13.4636C143.113 13.4404 143.148 13.4113 143.183 13.3705C143.212 13.3298 143.23 13.2832 143.23 13.225C143.23 13.161 143.206 13.1086 143.171 13.0736C143.13 13.0329 143.077 13.0038 143.013 12.9747C142.948 12.9514 142.872 12.9281 142.79 12.9048C142.708 12.8874 142.62 12.8641 142.538 12.8408C142.45 12.8175 142.362 12.7942 142.28 12.7593C142.198 12.7302 142.122 12.6895 142.057 12.6371C141.993 12.5847 141.94 12.5265 141.899 12.4508C141.858 12.3751 141.84 12.282 141.84 12.1772C141.84 12.055 141.864 11.9502 141.917 11.8629C141.969 11.7756 142.034 11.6999 142.122 11.6417C142.204 11.5835 142.298 11.5369 142.409 11.5078C142.52 11.4787 142.62 11.4671 142.726 11.4671C142.849 11.4671 142.966 11.4787 143.083 11.5078C143.195 11.5369 143.3 11.5777 143.388 11.6417C143.476 11.7057 143.547 11.7814 143.599 11.8745C143.652 11.9677 143.675 12.0841 143.675 12.2238H143.171C143.171 12.1539 143.154 12.0957 143.124 12.0492C143.101 12.0026 143.066 11.9677 143.025 11.9386C142.984 11.9095 142.937 11.892 142.878 11.8804C142.825 11.8687 142.767 11.8629 142.702 11.8629C142.661 11.8629 142.62 11.8629 142.579 11.8745C142.538 11.8804 142.497 11.8978 142.468 11.9211C142.432 11.9444 142.403 11.9677 142.386 12.0026C142.362 12.0375 142.35 12.0783 142.35 12.1248C142.35 12.1714 142.362 12.2063 142.38 12.2354C142.397 12.2645 142.432 12.2878 142.485 12.3169C142.538 12.3402 142.608 12.3635 142.702 12.3868C142.796 12.4101 142.913 12.4392 143.06 12.4799C143.107 12.4857 143.165 12.5032 143.242 12.5265C143.318 12.5498 143.4 12.5847 143.476 12.6371C143.552 12.6895 143.623 12.7535 143.675 12.8408C143.734 12.9223 143.758 13.0329 143.758 13.1668C143.758 13.2716 143.734 13.3763 143.693 13.4636C143.652 13.551 143.588 13.6325 143.505 13.7023C143.423 13.7663 143.318 13.8187 143.195 13.8595C143.072 13.8944 142.931 13.9177 142.773 13.9177C142.644 13.9177 142.515 13.9002 142.391 13.8711C142.268 13.842 142.163 13.7896 142.069 13.7198C141.975 13.6499 141.899 13.5626 141.846 13.4578C141.793 13.353 141.764 13.2308 141.77 13.0853H142.274C142.274 13.161 142.286 13.2308 142.315 13.2832L142.292 13.289Z" fill="white"/>
<path d="M81.6346 4.38861V3.19532H86.9702V4.38861H85.0178V9.65655H83.5871V4.38861H81.6346Z" fill="white"/>
<path d="M88.9633 3.19532V5.67504H91.5959V3.19532H93.0266V9.65655H91.5959V6.86833H88.9633V9.65655H87.5327V3.19532H88.9633Z" fill="white"/>
<path d="M69.5794 31.1763L68.5219 27.9305H69.2587L69.9873 30.213H69.9971L70.7339 27.9305H71.4756L70.3902 31.1763H69.5794Z" fill="#1D1D1B"/>
<path d="M72.432 27.9305V31.1763H71.7133V27.9305H72.432Z" fill="#1D1D1B"/>
<path d="M73.5654 30.3755C73.6049 30.4506 73.6575 30.5126 73.7233 30.56C73.7891 30.6073 73.8664 30.6416 73.9552 30.6644C74.044 30.6873 74.1361 30.6987 74.2298 30.6987C74.294 30.6987 74.3631 30.6938 74.4354 30.6824C74.5094 30.671 74.5769 30.6514 74.641 30.6204C74.7051 30.5893 74.7578 30.5485 74.8005 30.4946C74.8433 30.4408 74.8647 30.3738 74.8647 30.2922C74.8647 30.204 74.8367 30.1338 74.7791 30.0783C74.7216 30.0228 74.6492 29.9787 74.5571 29.9428C74.465 29.9069 74.3614 29.8742 74.2463 29.8481C74.1295 29.8203 74.0128 29.7909 73.8943 29.7567C73.7726 29.7273 73.6526 29.6897 73.5375 29.6456C73.4207 29.6015 73.3171 29.5444 73.2266 29.4758C73.1345 29.4056 73.0605 29.3191 73.0046 29.2146C72.9487 29.1101 72.9191 28.9827 72.9191 28.8342C72.9191 28.6676 72.9553 28.5223 73.026 28.3999C73.0983 28.2774 73.1921 28.1745 73.3072 28.0929C73.424 28.0113 73.5539 27.9509 73.7019 27.9117C73.8499 27.8725 73.9947 27.8529 74.141 27.8529C74.3121 27.8529 74.4765 27.8725 74.6328 27.91C74.7907 27.9476 74.9288 28.0096 75.0521 28.0945C75.1738 28.1794 75.2709 28.2872 75.3432 28.4194C75.4156 28.5517 75.4501 28.7117 75.4501 28.8995H74.7545C74.7479 28.8031 74.7282 28.7215 74.692 28.6578C74.6558 28.5941 74.6097 28.5435 74.5522 28.5076C74.4946 28.4717 74.4272 28.4456 74.3532 28.4309C74.2775 28.4162 74.1969 28.408 74.1081 28.408C74.0506 28.408 73.9914 28.4146 73.9338 28.426C73.8762 28.4374 73.8236 28.4586 73.7759 28.4897C73.7282 28.5207 73.6904 28.5582 73.6592 28.6039C73.6279 28.6497 73.6131 28.7068 73.6131 28.777C73.6131 28.8407 73.6246 28.8929 73.6493 28.9321C73.674 28.9713 73.7217 29.0072 73.794 29.0415C73.8664 29.0758 73.9651 29.1085 74.0917 29.1411C74.2183 29.1738 74.3844 29.2162 74.5884 29.2685C74.6492 29.2815 74.7347 29.3028 74.8433 29.3338C74.9518 29.3664 75.0587 29.417 75.1656 29.4856C75.2725 29.5558 75.3646 29.6489 75.4436 29.7648C75.5209 29.8807 75.5603 30.0309 75.5603 30.2122C75.5603 30.3608 75.5307 30.4979 75.4732 30.6253C75.4156 30.7526 75.3285 30.862 75.215 30.9551C75.0999 31.0481 74.9584 31.12 74.789 31.1706C74.6196 31.2228 74.4239 31.2473 74.2002 31.2473C74.0193 31.2473 73.845 31.2261 73.6756 31.182C73.5062 31.1379 73.3565 31.0694 73.2266 30.9747C73.0967 30.88 72.9931 30.7608 72.9174 30.6155C72.8418 30.4702 72.804 30.2971 72.8073 30.0979H73.5029C73.5029 30.2073 73.5227 30.3003 73.5621 30.3755H73.5654Z" fill="#1D1D1B"/>
<path d="M76.6586 27.9305V31.1763H75.9399V27.9305H76.6586Z" fill="#1D1D1B"/>
<path d="M76.9906 28.5274V27.9266H79.6697V28.5274H78.6895V31.1741H77.9708V28.5274H76.9906Z" fill="#1D1D1B"/>
<path d="M84.0873 30.9274C83.8406 31.1413 83.4985 31.2474 83.0611 31.2474C82.6236 31.2474 82.2749 31.1413 82.0332 30.9291C81.7898 30.7168 81.6697 30.3903 81.6697 29.9462V27.9265H82.3884V29.9462C82.3884 30.0343 82.3966 30.1209 82.4114 30.2058C82.4262 30.2907 82.4591 30.3658 82.5068 30.4311C82.5562 30.4964 82.6236 30.5486 82.7108 30.5894C82.7979 30.6303 82.9147 30.6515 83.0611 30.6515C83.3176 30.6515 83.4953 30.5943 83.5923 30.4817C83.6893 30.3674 83.7386 30.1894 83.7386 29.9478V27.9281H84.4574V29.9478C84.4574 30.387 84.334 30.7135 84.0857 30.9274H84.0873Z" fill="#1D1D1B"/>
<path d="M85.5866 30.3753C85.6261 30.4505 85.6787 30.5125 85.7445 30.5598C85.8103 30.6072 85.8876 30.6415 85.9764 30.6643C86.0652 30.6872 86.1573 30.6986 86.251 30.6986C86.3152 30.6986 86.3842 30.6937 86.4566 30.6823C86.5306 30.6709 86.598 30.6513 86.6622 30.6203C86.7263 30.5892 86.7789 30.5484 86.8217 30.4945C86.8645 30.4407 86.8858 30.3737 86.8858 30.2921C86.8858 30.2039 86.8579 30.1337 86.802 30.0782C86.7461 30.0243 86.6721 29.9786 86.58 29.9427C86.4879 29.9068 86.3842 29.8741 86.2691 29.848C86.1524 29.8202 86.0356 29.7908 85.9172 29.7565C85.7955 29.7272 85.6754 29.6896 85.5603 29.6455C85.4435 29.6014 85.3399 29.5443 85.2495 29.4757C85.1574 29.4055 85.0834 29.319 85.0274 29.2145C84.9715 29.11 84.9436 28.9826 84.9436 28.8341C84.9436 28.6675 84.9797 28.5222 85.0505 28.3998C85.1212 28.2773 85.2166 28.1744 85.3317 28.0928C85.4485 28.0112 85.5784 27.9508 85.7247 27.9116C85.8711 27.8724 86.0175 27.8528 86.1639 27.8528C86.3349 27.8528 86.4994 27.8724 86.6556 27.9099C86.8118 27.9475 86.9533 28.0095 87.075 28.0944C87.1967 28.1793 87.2937 28.2871 87.3661 28.4193C87.4384 28.5516 87.473 28.7116 87.473 28.8994H86.7773C86.7707 28.803 86.751 28.7214 86.7148 28.6577C86.6803 28.594 86.6326 28.5434 86.575 28.5075C86.5175 28.4716 86.45 28.4455 86.376 28.4308C86.302 28.4161 86.2198 28.4079 86.131 28.4079C86.0734 28.4079 86.0142 28.4144 85.9566 28.4259C85.8991 28.4373 85.8465 28.4585 85.7988 28.4896C85.7511 28.5206 85.7132 28.5581 85.682 28.6038C85.6507 28.6496 85.6359 28.7067 85.6359 28.7769C85.6359 28.8406 85.6474 28.8928 85.6721 28.932C85.6968 28.9712 85.7445 29.0071 85.8168 29.0414C85.8892 29.0757 85.9879 29.1084 86.1145 29.141C86.2412 29.1737 86.4073 29.2161 86.6112 29.2684C86.672 29.2814 86.7576 29.3026 86.8661 29.3337C86.9747 29.3663 87.0816 29.4169 87.1885 29.4855C87.2954 29.5557 87.3875 29.6488 87.4664 29.7647C87.5437 29.8806 87.5832 30.0308 87.5832 30.2121C87.5832 30.3607 87.5536 30.4978 87.496 30.6252C87.4384 30.7525 87.3513 30.8619 87.2378 30.955C87.1243 31.048 86.9812 31.1199 86.8118 31.1705C86.6424 31.2227 86.4467 31.2472 86.2231 31.2472C86.0422 31.2472 85.8678 31.226 85.6984 31.1819C85.529 31.1378 85.3794 31.0693 85.2495 30.9746C85.1195 30.8799 85.0159 30.7607 84.9403 30.6154C84.8646 30.47 84.8268 30.297 84.8301 30.0978H85.5257C85.5257 30.2072 85.5455 30.3002 85.585 30.3753H85.5866Z" fill="#1D1D1B"/>
<path d="M91.9564 29.9673C91.9481 30.0016 91.9448 30.0342 91.9448 30.0652C91.9448 30.0963 91.9514 30.1207 91.9629 30.1403C91.9744 30.1599 91.9942 30.1697 92.0221 30.1697C92.0863 30.1697 92.1504 30.1501 92.2162 30.1077C92.282 30.0669 92.3395 30.0097 92.3905 29.9346C92.4415 29.8595 92.4826 29.7713 92.5139 29.6685C92.5468 29.5656 92.5616 29.453 92.5616 29.3321C92.5616 29.1509 92.5303 28.9909 92.4662 28.8521C92.402 28.715 92.3149 28.5974 92.203 28.5027C92.0912 28.408 91.9596 28.3345 91.8083 28.2872C91.657 28.2382 91.4942 28.2137 91.3199 28.2137C91.1242 28.2137 90.9465 28.248 90.787 28.3166C90.6275 28.3852 90.4893 28.4782 90.3775 28.599C90.264 28.7182 90.1769 28.8619 90.116 29.0268C90.0552 29.1917 90.0239 29.3697 90.0239 29.5607C90.0239 29.7518 90.0568 29.9412 90.1242 30.1044C90.1917 30.2661 90.2838 30.4065 90.4038 30.5224C90.5222 30.6383 90.6653 30.7298 90.8314 30.7934C90.9975 30.8571 91.1784 30.8881 91.3741 30.8881C91.5699 30.8881 91.7491 30.8555 91.9218 30.7902C92.0945 30.7249 92.2409 30.6334 92.3593 30.5159H92.7441C92.5879 30.7526 92.3889 30.9338 92.1438 31.0596C91.8988 31.1853 91.634 31.249 91.3462 31.249C91.1011 31.249 90.8725 31.2065 90.6587 31.1216C90.4449 31.0367 90.2575 30.9192 90.0979 30.7673C89.9384 30.6155 89.8118 30.4359 89.7197 30.2285C89.6276 30.0212 89.5832 29.7958 89.5832 29.5526C89.5832 29.3093 89.6292 29.0889 89.7197 28.8815C89.8118 28.6742 89.9368 28.4946 90.0946 28.3427C90.2525 28.1909 90.4384 28.0717 90.6489 27.9835C90.8594 27.8953 91.0847 27.8513 91.3215 27.8513C91.5287 27.8513 91.7294 27.8855 91.9218 27.9509C92.1142 28.0178 92.2836 28.1109 92.43 28.2301C92.5764 28.3492 92.6948 28.4946 92.7819 28.666C92.8707 28.8374 92.9152 29.0268 92.9152 29.2374C92.9152 29.4709 92.8724 29.6717 92.7885 29.8383C92.7047 30.0048 92.6043 30.142 92.4859 30.2481C92.3691 30.3542 92.2491 30.4326 92.129 30.4816C92.009 30.5306 91.9119 30.5567 91.8379 30.5567C91.7409 30.5567 91.662 30.5322 91.6028 30.4832C91.5435 30.4342 91.5107 30.3722 91.5041 30.2971H91.4942C91.4399 30.3885 91.3676 30.4555 91.2788 30.4979C91.19 30.5404 91.0979 30.5616 90.9992 30.5616C90.9005 30.5616 90.8084 30.542 90.7229 30.4995C90.6374 30.4571 90.5601 30.4032 90.4943 30.3314C90.4285 30.2595 90.3775 30.1779 90.338 30.0832C90.2986 29.9885 90.2805 29.8889 90.2805 29.7828C90.2805 29.6407 90.3035 29.4987 90.3512 29.3599C90.3989 29.2211 90.4663 29.0954 90.5535 28.9876C90.6406 28.8782 90.7459 28.7901 90.8692 28.7231C90.9926 28.6562 91.1291 28.6235 91.2788 28.6235C91.3758 28.6235 91.4778 28.6464 91.5814 28.6937C91.685 28.7411 91.7623 28.8227 91.8149 28.9419L91.8889 28.697H92.2639L91.9761 29.8693C91.9662 29.9003 91.958 29.933 91.9514 29.9673H91.9564ZM90.8512 30.0163C90.9169 30.0914 91.0025 30.1273 91.1094 30.1273C91.1916 30.1273 91.2673 30.1061 91.3363 30.0636C91.4054 30.0212 91.4646 29.9673 91.5156 29.902C91.5666 29.8367 91.6044 29.7632 91.6324 29.6815C91.6603 29.5999 91.6735 29.5199 91.6735 29.4399C91.6735 29.3272 91.6389 29.2358 91.5699 29.1623C91.5008 29.0889 91.4186 29.0529 91.3199 29.0529C91.2377 29.0529 91.1604 29.0725 91.0913 29.115C91.0206 29.1558 90.9613 29.2097 90.9104 29.2734C90.8594 29.3387 90.8216 29.4105 90.7936 29.4889C90.7656 29.5673 90.7525 29.6456 90.7525 29.7207C90.7525 29.8416 90.7854 29.9395 90.8512 30.0146V30.0163Z" fill="#1D1D1B"/>
<path d="M95.6339 27.8984V29.1441H96.9578V27.8984H97.6765V31.1442H96.9578V29.7434H95.6339V31.1442H94.9152V27.8984H95.6339Z" fill="#1D1D1B"/>
<path d="M98.1705 29.5152C98.1804 29.3634 98.2182 29.2377 98.2856 29.1381C98.353 29.0385 98.4386 28.9585 98.5422 28.8964C98.6458 28.836 98.7626 28.7919 98.8925 28.7675C99.0224 28.7413 99.1523 28.7283 99.2839 28.7283C99.4023 28.7283 99.524 28.7364 99.6457 28.7528C99.7674 28.7691 99.8792 28.8017 99.9796 28.8507C100.08 28.8997 100.162 28.9666 100.226 29.0532C100.29 29.1397 100.322 29.254 100.322 29.3961V30.619C100.322 30.7251 100.328 30.8263 100.34 30.9243C100.351 31.0206 100.373 31.0941 100.404 31.1431H99.7444C99.7329 31.1071 99.723 31.0696 99.7148 31.032C99.7066 30.9945 99.7016 30.9553 99.6983 30.9161C99.5947 31.0222 99.473 31.0957 99.3316 31.1382C99.1918 31.1806 99.0471 31.2018 98.9007 31.2018C98.7872 31.2018 98.682 31.1888 98.5849 31.161C98.4879 31.1333 98.4024 31.0908 98.3284 31.0337C98.2544 30.9765 98.1985 30.9031 98.1573 30.8149C98.1162 30.7267 98.0948 30.6222 98.0948 30.5014C98.0948 30.3675 98.1179 30.2581 98.1656 30.1716C98.2133 30.0851 98.2741 30.0165 98.3481 29.9642C98.4221 29.912 98.5076 29.8744 98.6047 29.8483C98.7001 29.8222 98.7971 29.8026 98.8958 29.7863C98.9944 29.7699 99.0898 29.7585 99.1836 29.7504C99.279 29.7406 99.3628 29.7275 99.4352 29.7095C99.5092 29.6916 99.5668 29.6655 99.6095 29.6295C99.6523 29.5952 99.672 29.5446 99.6687 29.4777C99.6687 29.4075 99.6572 29.352 99.6342 29.3112C99.6112 29.2703 99.5799 29.2377 99.5421 29.2165C99.5043 29.1936 99.4599 29.1789 99.4089 29.1707C99.3579 29.1626 99.3036 29.1593 99.2461 29.1593C99.1178 29.1593 99.0175 29.1871 98.9435 29.2409C98.8695 29.2948 98.8267 29.3863 98.8152 29.5136H98.1656L98.1705 29.5152ZM99.672 29.9936C99.6441 30.0181 99.6095 30.0361 99.5684 30.0508C99.5273 30.0638 99.4829 30.0753 99.4352 30.0851C99.3875 30.0949 99.3382 30.1014 99.2855 30.1079C99.2329 30.1145 99.1819 30.121 99.1293 30.1308C99.08 30.1406 99.0323 30.152 98.9846 30.1667C98.9369 30.1814 98.8958 30.2026 98.8612 30.2287C98.8267 30.2549 98.7987 30.2875 98.7774 30.3267C98.756 30.3659 98.7445 30.4165 98.7445 30.4769C98.7445 30.5373 98.756 30.583 98.7774 30.6222C98.7987 30.6614 98.8283 30.6924 98.8645 30.7153C98.9007 30.7382 98.9435 30.7545 98.9928 30.7626C99.0421 30.7724 99.0915 30.7757 99.1441 30.7757C99.2724 30.7757 99.3711 30.7545 99.4418 30.712C99.5125 30.6696 99.5635 30.619 99.598 30.5602C99.6309 30.5014 99.6523 30.441 99.6605 30.3806C99.6687 30.3202 99.672 30.2712 99.672 30.2353V29.9936Z" fill="#1D1D1B"/>
<path d="M101.449 27.8984V31.1442H100.798V27.8984H101.449Z" fill="#1D1D1B"/>
<path d="M102.582 27.8984V31.1442H101.931V27.8984H102.582Z" fill="#1D1D1B"/>
<path d="M106.864 30.5668H105.583L105.342 31.2766H104.582L105.823 27.8237H106.644L107.876 31.2766H107.088L106.864 30.5668ZM106.661 29.9718L106.227 28.6131L105.778 29.9718H106.661Z" fill="black"/>
<path d="M112.876 31.293V27.8073H113.497V31.293H112.876Z" fill="black"/>
<path d="M120.036 27.8984C120.192 27.8984 120.334 27.9114 120.462 27.9392C120.59 27.967 120.7 28.011 120.791 28.0731C120.883 28.1351 120.954 28.2184 121.003 28.3213C121.054 28.4241 121.079 28.5515 121.079 28.7033C121.079 28.8666 121.041 29.0037 120.967 29.1131C120.891 29.2225 120.781 29.3123 120.635 29.3809C120.837 29.438 120.987 29.5393 121.085 29.6829C121.184 29.8266 121.235 30.0013 121.235 30.2038C121.235 30.3671 121.202 30.5091 121.14 30.6283C121.075 30.7475 120.988 30.8454 120.881 30.9222C120.774 30.9989 120.649 31.0544 120.51 31.0904C120.37 31.1263 120.228 31.1442 120.082 31.1442H118.497V27.8984H120.036ZM119.944 29.2127C120.072 29.2127 120.177 29.1817 120.26 29.1213C120.342 29.0609 120.383 28.9629 120.383 28.8258C120.383 28.7507 120.37 28.6886 120.342 28.6396C120.314 28.5907 120.278 28.5531 120.232 28.5253C120.186 28.4976 120.133 28.4796 120.074 28.4682C120.015 28.4584 119.952 28.4519 119.888 28.4519H119.215V29.2111H119.944V29.2127ZM119.985 30.5891C120.056 30.5891 120.123 30.5826 120.187 30.5679C120.251 30.5548 120.307 30.532 120.357 30.4993C120.406 30.4667 120.444 30.4242 120.473 30.3703C120.503 30.3164 120.516 30.2462 120.516 30.1613C120.516 29.9948 120.468 29.8756 120.375 29.8038C120.279 29.7319 120.154 29.6976 120 29.6976H119.217V30.5891H119.987H119.985Z" fill="#1D1D1B"/>
<path d="M121.619 29.4581C121.676 29.3046 121.759 29.174 121.866 29.0662C121.973 28.9585 122.101 28.8752 122.25 28.8164C122.4 28.7577 122.568 28.7283 122.754 28.7283C122.94 28.7283 123.109 28.7577 123.26 28.8164C123.412 28.8752 123.54 28.9585 123.647 29.0662C123.754 29.174 123.836 29.3046 123.893 29.4581C123.951 29.6116 123.981 29.7814 123.981 29.9691C123.981 30.1569 123.951 30.3267 123.893 30.4786C123.836 30.6304 123.754 30.7594 123.647 30.8671C123.54 30.9749 123.412 31.0582 123.26 31.1153C123.109 31.1725 122.94 31.2018 122.754 31.2018C122.568 31.2018 122.4 31.1725 122.25 31.1153C122.101 31.0582 121.973 30.9749 121.866 30.8671C121.759 30.7594 121.676 30.6304 121.619 30.4786C121.561 30.3267 121.532 30.1569 121.532 29.9691C121.532 29.7814 121.561 29.6099 121.619 29.4581ZM122.209 30.2451C122.227 30.3349 122.259 30.4149 122.303 30.4867C122.347 30.5586 122.407 30.6157 122.479 30.6565C122.551 30.6973 122.644 30.7202 122.754 30.7202C122.864 30.7202 122.956 30.699 123.03 30.6565C123.104 30.6141 123.165 30.5569 123.209 30.4867C123.254 30.4149 123.285 30.3349 123.303 30.2451C123.321 30.1553 123.331 30.0638 123.331 29.9691C123.331 29.8744 123.321 29.783 123.303 29.6916C123.285 29.6001 123.254 29.5201 123.209 29.4499C123.165 29.3797 123.106 29.3242 123.03 29.2801C122.954 29.236 122.862 29.2148 122.754 29.2148C122.645 29.2148 122.551 29.236 122.479 29.2801C122.407 29.3242 122.347 29.3814 122.303 29.4499C122.259 29.5201 122.227 29.6001 122.209 29.6916C122.191 29.783 122.181 29.8744 122.181 29.9691C122.181 30.0638 122.191 30.1553 122.209 30.2451Z" fill="#1D1D1B"/>
<path d="M124.373 29.4581C124.43 29.3046 124.513 29.174 124.62 29.0662C124.726 28.9585 124.855 28.8752 125.004 28.8164C125.154 28.7577 125.322 28.7283 125.508 28.7283C125.693 28.7283 125.863 28.7577 126.014 28.8164C126.165 28.8752 126.294 28.9585 126.401 29.0662C126.508 29.174 126.59 29.3046 126.647 29.4581C126.705 29.6116 126.735 29.7814 126.735 29.9691C126.735 30.1569 126.705 30.3267 126.647 30.4786C126.59 30.6304 126.508 30.7594 126.401 30.8671C126.294 30.9749 126.165 31.0582 126.014 31.1153C125.863 31.1725 125.693 31.2018 125.508 31.2018C125.322 31.2018 125.154 31.1725 125.004 31.1153C124.855 31.0582 124.726 30.9749 124.62 30.8671C124.513 30.7594 124.43 30.6304 124.373 30.4786C124.315 30.3267 124.286 30.1569 124.286 29.9691C124.286 29.7814 124.315 29.6099 124.373 29.4581ZM124.963 30.2451C124.981 30.3349 125.013 30.4149 125.057 30.4867C125.101 30.5586 125.161 30.6157 125.233 30.6565C125.305 30.6973 125.397 30.7202 125.508 30.7202C125.618 30.7202 125.71 30.699 125.784 30.6565C125.858 30.6141 125.919 30.5569 125.963 30.4867C126.008 30.4149 126.039 30.3349 126.057 30.2451C126.075 30.1553 126.085 30.0638 126.085 29.9691C126.085 29.8744 126.075 29.783 126.057 29.6916C126.039 29.6001 126.008 29.5201 125.963 29.4499C125.919 29.3797 125.86 29.3242 125.784 29.2801C125.708 29.236 125.616 29.2148 125.508 29.2148C125.399 29.2148 125.305 29.236 125.233 29.2801C125.161 29.3242 125.101 29.3814 125.057 29.4499C125.013 29.5201 124.981 29.6001 124.963 29.6916C124.945 29.783 124.935 29.8744 124.935 29.9691C124.935 30.0638 124.945 30.1553 124.963 30.2451Z" fill="#1D1D1B"/>
<path d="M128.41 28.7918V29.2245H127.933V30.3886C127.933 30.498 127.951 30.5698 127.987 30.6074C128.024 30.6433 128.098 30.6613 128.208 30.6613C128.244 30.6613 128.28 30.6613 128.313 30.6564C128.346 30.6515 128.379 30.6482 128.409 30.6433V31.1429C128.354 31.1527 128.292 31.1576 128.226 31.1609C128.16 31.1641 128.093 31.1658 128.029 31.1658C127.928 31.1658 127.833 31.1593 127.742 31.1446C127.652 31.1315 127.573 31.1037 127.504 31.0646C127.435 31.0254 127.381 30.9699 127.341 30.8964C127.302 30.8229 127.282 30.7282 127.282 30.6107V29.2245H126.887V28.7918H127.282V28.0865H127.932V28.7918H128.41Z" fill="#1D1D1B"/>
<path d="M129.329 27.8984V29.1213H129.342C129.425 28.9858 129.53 28.8862 129.658 28.8241C129.786 28.7621 129.911 28.7311 130.033 28.7311C130.207 28.7311 130.351 28.7539 130.461 28.8013C130.571 28.8486 130.66 28.9139 130.724 28.9972C130.788 29.0805 130.832 29.1817 130.859 29.3025C130.885 29.4217 130.898 29.5556 130.898 29.7009V31.1475H130.249V29.8201C130.249 29.6258 130.217 29.4805 130.156 29.3858C130.096 29.2911 129.987 29.2421 129.831 29.2421C129.653 29.2421 129.525 29.2944 129.446 29.3988C129.367 29.5033 129.328 29.6748 129.328 29.9148V31.1475H128.676V27.9016H129.328L129.329 27.8984Z" fill="#1D1D1B"/>
<path d="M139.289 30.5341H140.004V31.2322H139.289V30.5341Z" fill="black"/>
<path d="M138.494 29.0023C138.711 29.2725 138.82 29.5919 138.82 29.9604C138.82 30.3352 138.711 30.6561 138.494 30.9232C138.277 31.1887 137.947 31.3214 137.505 31.3214C137.063 31.3214 136.734 31.1887 136.517 30.9232C136.3 30.6561 136.191 30.3352 136.191 29.9604C136.191 29.5919 136.3 29.2725 136.517 29.0023C136.734 28.7321 137.063 28.5971 137.505 28.5971C137.947 28.5971 138.277 28.7321 138.494 29.0023ZM137.503 29.1616C137.306 29.1616 137.155 29.2311 137.048 29.3701C136.942 29.5075 136.89 29.7043 136.89 29.9604C136.89 30.2165 136.942 30.4141 137.048 30.5531C137.155 30.6921 137.306 30.7616 137.503 30.7616C137.7 30.7616 137.851 30.6921 137.956 30.5531C138.062 30.4141 138.114 30.2165 138.114 29.9604C138.114 29.7043 138.062 29.5075 137.956 29.3701C137.851 29.2311 137.7 29.1616 137.503 29.1616Z" fill="black"/>
<path d="M135.723 31.2317H134.996L133.575 28.7791V31.2317H132.898V27.7788H133.66L135.045 30.1893V27.7788H135.723V31.2317Z" fill="black"/>
<path d="M145.615 31.3117C145.359 31.3117 145.128 31.2367 144.924 31.0868C144.719 30.9353 144.602 30.7151 144.572 30.4262H145.242C145.258 30.5262 145.301 30.6074 145.37 30.6698C145.439 30.7323 145.531 30.7635 145.646 30.7635C145.868 30.7635 146.023 30.6417 146.113 30.3981C146.162 30.2638 146.192 30.0678 146.205 29.8101C146.144 29.8867 146.078 29.9452 146.009 29.9858C145.883 30.0608 145.728 30.0983 145.544 30.0983C145.272 30.0983 145.031 30.0053 144.82 29.8195C144.609 29.6321 144.504 29.3627 144.504 29.0113C144.504 28.6475 144.609 28.3531 144.82 28.1282C145.032 27.9018 145.308 27.7885 145.646 27.7885C146.166 27.7885 146.524 28.0173 146.717 28.4749C146.827 28.7341 146.882 29.0754 146.882 29.4986C146.882 29.9093 146.83 30.2521 146.724 30.5269C146.523 31.0501 146.153 31.3117 145.615 31.3117ZM145.379 28.4421C145.25 28.542 145.186 28.7115 145.186 28.9504C145.186 29.1519 145.227 29.3034 145.308 29.4049C145.392 29.5048 145.519 29.5548 145.691 29.5548C145.783 29.5548 145.871 29.5282 145.953 29.4752C146.105 29.3783 146.181 29.2104 146.181 28.9715C146.181 28.7794 146.136 28.6272 146.045 28.5147C145.955 28.4023 145.831 28.3461 145.674 28.3461C145.559 28.3461 145.461 28.3781 145.379 28.4421Z" fill="black"/>
<path d="M143.497 31.2123H142.808V28.8698H142.004V28.4154C142.216 28.406 142.365 28.3919 142.45 28.3732C142.585 28.3435 142.695 28.2842 142.78 28.1952C142.838 28.1343 142.882 28.0531 142.912 27.9515C142.93 27.8906 142.938 27.8454 142.938 27.8157H143.497V31.2123Z" fill="black"/>
<path d="M69.461 20.2939L70.2631 22.8962H70.2732L71.032 20.2939H72.0938V24.0777H71.3869V21.3967H71.3768L70.5357 24.0777H69.9544L69.1133 21.4225H69.1032V24.0777H68.3964V20.2939H69.461Z" fill="#1D71B8"/>
<path d="M72.5629 22.1782C72.5729 22.002 72.6119 21.8545 72.6826 21.7385C72.7533 21.6225 72.8427 21.528 72.9523 21.4578C73.0605 21.3876 73.1832 21.3375 73.3202 21.3074C73.4558 21.2773 73.5929 21.2616 73.7314 21.2616C73.8569 21.2616 73.9824 21.2716 74.1108 21.2902C74.2392 21.3103 74.356 21.3475 74.4613 21.4034C74.5666 21.4607 74.6532 21.538 74.721 21.6397C74.7888 21.7399 74.822 21.8731 74.822 22.0392V23.4643C74.822 23.5874 74.8277 23.7063 74.8407 23.8194C74.8537 23.9326 74.8753 24.0171 74.9085 24.0744H74.2175C74.2045 24.0314 74.1944 23.9884 74.1858 23.944C74.1771 23.8996 74.1728 23.8552 74.1685 23.8094C74.0603 23.9326 73.9319 24.0199 73.7847 24.0686C73.6376 24.1188 73.4876 24.1431 73.3332 24.1431C73.2149 24.1431 73.1038 24.1274 73.0014 24.0958C72.899 24.0643 72.8095 24.0142 72.7316 23.9469C72.6552 23.8796 72.5946 23.7951 72.5513 23.692C72.508 23.5903 72.4864 23.4671 72.4864 23.3268C72.4864 23.1721 72.5109 23.0432 72.5614 22.9429C72.6119 22.8427 72.6754 22.7625 72.7533 22.7023C72.8312 22.6422 72.9221 22.5978 73.0216 22.5677C73.1226 22.5376 73.2236 22.5133 73.326 22.4961C73.4284 22.4789 73.5294 22.4646 73.6289 22.4531C73.7285 22.4431 73.8165 22.4274 73.8929 22.4059C73.9694 22.3844 74.03 22.3543 74.0761 22.3128C74.1209 22.2727 74.1425 22.2125 74.1382 22.1352C74.1382 22.0536 74.1266 21.9891 74.1021 21.9419C74.0776 21.8946 74.0458 21.8574 74.0054 21.8302C73.9651 21.8044 73.9189 21.7858 73.8655 21.7772C73.8121 21.7686 73.7559 21.7643 73.6953 21.7643C73.5611 21.7643 73.4544 21.7958 73.3779 21.8602C73.3015 21.9232 73.2567 22.0292 73.2438 22.1782H72.5614H72.5629ZM74.1382 22.7339C74.1093 22.7625 74.0733 22.784 74.03 22.7997C73.9867 22.8155 73.9405 22.8284 73.89 22.8398C73.8395 22.8513 73.7876 22.8599 73.7342 22.867C73.6794 22.8742 73.626 22.8828 73.5712 22.8928C73.5193 22.9028 73.4688 22.9172 73.4198 22.9358C73.3707 22.953 73.3274 22.9773 73.2899 23.0074C73.2524 23.0375 73.2236 23.0747 73.2005 23.1205C73.1774 23.1664 73.1673 23.2251 73.1673 23.2953C73.1673 23.3654 73.1788 23.4184 73.2005 23.4643C73.2221 23.5101 73.2539 23.5459 73.2914 23.5731C73.3303 23.5989 73.375 23.6175 73.4255 23.629C73.476 23.639 73.5294 23.6447 73.5842 23.6447C73.7184 23.6447 73.8222 23.6204 73.8972 23.5702C73.9708 23.5201 74.0256 23.4614 74.0603 23.3926C74.0949 23.3239 74.1165 23.2537 74.1252 23.1836C74.1338 23.1134 74.1367 23.0561 74.1367 23.0146V22.7339H74.1382Z" fill="#1D71B8"/>
<path d="M76.1689 24.8921C76.0376 24.9881 75.8544 25.0353 75.6207 25.0353C75.55 25.0353 75.4807 25.0325 75.4115 25.0267C75.3422 25.021 75.273 25.0153 75.2023 25.0081V24.388C75.2658 24.3952 75.3321 24.4023 75.3999 24.4095C75.4677 24.4166 75.5341 24.4181 75.6019 24.4152C75.6914 24.4052 75.7577 24.3651 75.801 24.2992C75.8443 24.2333 75.8659 24.1574 75.8659 24.0772C75.8659 24.0171 75.8558 23.9612 75.8371 23.9082L74.9672 21.3375H75.6928L76.2554 23.2136H76.2655L76.8079 21.3375H77.5148L76.4776 24.4166C76.404 24.6386 76.3016 24.7976 76.1703 24.8936L76.1689 24.8921Z" fill="#1D71B8"/>
<path d="M79.7305 24.0753V21.6693H78.8852V21.1021C79.0035 21.105 79.1189 21.0964 79.2285 21.0735C79.3396 21.0506 79.4377 21.0105 79.5271 20.9518C79.6151 20.893 79.6901 20.8171 79.7507 20.7212C79.8113 20.6252 79.8517 20.5078 79.8705 20.366H80.4129V24.0753H79.7305Z" fill="#1D71B8"/>
<path d="M81.9711 23.4461C82.0504 23.5378 82.15 23.5836 82.2683 23.5836C82.3938 23.5836 82.4962 23.5435 82.5755 23.4647C82.6549 23.386 82.7198 23.2886 82.7674 23.1726C82.815 23.058 82.8496 22.9348 82.8713 22.8045C82.8915 22.6742 82.9059 22.5567 82.9117 22.455L82.9016 22.445C82.8092 22.594 82.6996 22.7 82.5755 22.763C82.45 22.826 82.3072 22.8589 82.1428 22.8589C81.9985 22.8589 81.8571 22.8245 81.7201 22.7558C81.5816 22.6871 81.4647 22.594 81.3695 22.478C81.2801 22.3648 81.2137 22.2359 81.1719 22.0913C81.13 21.9466 81.1098 21.7991 81.1098 21.6516C81.1098 21.4611 81.1373 21.2835 81.1935 21.1188C81.2498 20.9541 81.3291 20.8109 81.4344 20.6892C81.5383 20.5674 81.6624 20.4715 81.8066 20.3999C81.9509 20.3297 82.111 20.2939 82.287 20.2939C82.5438 20.2939 82.7544 20.3498 82.9189 20.4615C83.0833 20.5732 83.216 20.7193 83.3156 20.9011C83.4151 21.083 83.4844 21.2893 83.5219 21.5184C83.5594 21.7476 83.5796 21.9796 83.5796 22.213C83.5796 22.4465 83.5551 22.6727 83.5074 22.9019C83.4598 23.131 83.3819 23.3387 83.2766 23.5249C83.1713 23.7111 83.0343 23.86 82.8684 23.9746C82.7025 24.0892 82.4991 24.1464 82.2582 24.1464C82.1139 24.1464 81.9797 24.1235 81.8542 24.0806C81.7287 24.0362 81.6191 23.9703 81.5224 23.8815C81.4258 23.7927 81.3479 23.6853 81.2873 23.5578C81.2267 23.4304 81.1863 23.2857 81.1675 23.1239H81.8167C81.8384 23.247 81.8903 23.3559 81.9711 23.4475V23.4461ZM82.5481 22.2359C82.6159 22.1987 82.6707 22.1486 82.7169 22.0855C82.7631 22.0225 82.7948 21.9481 82.8179 21.865C82.841 21.7819 82.8511 21.6946 82.8511 21.6029C82.8511 21.5184 82.8395 21.4339 82.815 21.3508C82.7905 21.2678 82.7559 21.1933 82.7097 21.1289C82.6635 21.063 82.6058 21.0114 82.5395 20.9728C82.4717 20.9341 82.3952 20.914 82.3086 20.914C82.2279 20.914 82.1572 20.9341 82.0923 20.9728C82.0288 21.0114 81.974 21.063 81.9292 21.126C81.8845 21.189 81.8513 21.2621 81.8283 21.3437C81.8052 21.4253 81.7951 21.5084 81.7951 21.5929C81.7951 21.6774 81.8052 21.7662 81.8268 21.8492C81.847 21.9323 81.8788 22.0068 81.9206 22.0712C81.9624 22.1371 82.0158 22.1901 82.0822 22.2302C82.1485 22.2703 82.2235 22.2918 82.3101 22.2918C82.4024 22.2918 82.4832 22.2732 82.551 22.2359H82.5481Z" fill="#1D71B8"/>
<path d="M83.6212 20.7988V20.3907H85.26V20.7988H84.6613V22.5962H84.2213V20.7988H83.6212Z" fill="#1D71B8"/>
<path d="M85.873 20.3907V21.2371H86.6823V20.3907H87.1223V22.5962H86.6823V21.6453H85.873V22.5962H85.433V20.3907H85.873Z" fill="#1D71B8"/>
<path d="M90.1927 22.7347L88.4298 21.9613V21.3527L90.8707 22.4225V23.0483L88.4298 24.1139V23.5095L90.1927 22.7361V22.7347Z" fill="#1D71B8"/>
<path d="M91.9087 21.2019C91.9592 21.02 92.0371 20.861 92.1395 20.725C92.242 20.5889 92.3704 20.483 92.5262 20.407C92.682 20.3311 92.8594 20.2939 93.0614 20.2939C93.2157 20.2939 93.3614 20.3197 93.5014 20.3727C93.6413 20.4257 93.7625 20.5016 93.8692 20.6004C93.9745 20.6992 94.0582 20.8209 94.1217 20.9656C94.1837 21.1102 94.2154 21.2735 94.2154 21.4525C94.2154 21.6316 94.188 21.8005 94.1332 21.9352C94.0784 22.0698 94.0063 22.1887 93.9168 22.2932C93.8274 22.3978 93.725 22.4923 93.611 22.5768C93.497 22.6613 93.3831 22.7458 93.2677 22.8288C93.1522 22.9119 93.0397 23.0007 92.9315 23.0967C92.8233 23.1926 92.7267 23.3029 92.643 23.4304H94.2327V24.0763H91.763C91.763 23.8614 91.7904 23.6738 91.8467 23.5149C91.903 23.3559 91.9794 23.2141 92.0746 23.0881C92.1713 22.962 92.2838 22.8475 92.4136 22.7415C92.5435 22.6355 92.6805 22.5281 92.8248 22.4178C92.8983 22.362 92.9762 22.3032 93.0599 22.246C93.1436 22.1872 93.2186 22.1228 93.2878 22.0526C93.3571 21.9824 93.4148 21.9022 93.461 21.8134C93.5071 21.7246 93.5302 21.6244 93.5302 21.5112C93.5302 21.3308 93.4826 21.1904 93.3888 21.0902C93.2936 20.9899 93.1739 20.9398 93.0267 20.9398C92.9272 20.9398 92.8435 20.9656 92.7743 21.0172C92.705 21.0687 92.6502 21.136 92.6084 21.2191C92.5665 21.3022 92.5363 21.3938 92.5189 21.4941C92.5016 21.5943 92.493 21.6946 92.493 21.7934H91.8395C91.8337 21.5814 91.8553 21.3852 91.9073 21.2033L91.9087 21.2019Z" fill="#1D71B8"/>
<path d="M95.437 24.0753V21.6693H94.5916V21.1021C94.7099 21.105 94.8253 21.0964 94.935 21.0735C95.0461 21.0506 95.1441 21.0105 95.2336 20.9518C95.3216 20.893 95.3966 20.8171 95.4572 20.7212C95.5178 20.6252 95.5582 20.5078 95.5769 20.366H96.1194V24.0753H95.437Z" fill="#1D71B8"/>
<path d="M97.3401 22.0538C97.3646 22.1053 97.3964 22.1468 97.4367 22.1783C97.4771 22.2099 97.5247 22.2342 97.5781 22.25C97.6315 22.2657 97.6878 22.2729 97.7469 22.2729C97.7859 22.2729 97.8277 22.2686 97.8724 22.2614C97.9171 22.2543 97.959 22.2399 97.9979 22.2199C98.0369 22.1998 98.07 22.1712 98.096 22.1354C98.122 22.0996 98.135 22.0537 98.135 21.9979C98.135 21.9377 98.1177 21.8905 98.083 21.8532C98.0484 21.816 98.0037 21.7859 97.9474 21.7602C97.8912 21.7358 97.8277 21.7143 97.757 21.6957C97.6863 21.6771 97.6142 21.657 97.5421 21.6341C97.467 21.6141 97.3949 21.5883 97.3242 21.5582C97.2535 21.5281 97.1901 21.4895 97.1338 21.4422C97.0775 21.395 97.0328 21.3362 96.9982 21.2646C96.9636 21.193 96.9463 21.1071 96.9463 21.0068C96.9463 20.8937 96.9679 20.7949 97.0126 20.7118C97.0559 20.6287 97.1136 20.5586 97.1843 20.5027C97.255 20.4469 97.3358 20.4053 97.4252 20.3795C97.5147 20.3523 97.6041 20.3394 97.6935 20.3394C97.7974 20.3394 97.8984 20.3523 97.995 20.3781C98.0917 20.4039 98.1768 20.4454 98.2518 20.5027C98.3268 20.56 98.386 20.6345 98.4293 20.7233C98.4725 20.8135 98.4956 20.9209 98.4956 21.0498H98.07C98.0657 20.9839 98.0542 20.9295 98.0325 20.8865C98.0109 20.8436 97.9821 20.8092 97.9474 20.7848C97.9114 20.7605 97.871 20.7433 97.8262 20.7319C97.7801 20.7218 97.731 20.7161 97.6762 20.7161C97.6402 20.7161 97.6055 20.7204 97.5695 20.729C97.5334 20.7376 97.5017 20.7519 97.4728 20.772C97.444 20.792 97.4194 20.8178 97.4007 20.8493C97.3819 20.8794 97.3733 20.9195 97.3733 20.9667C97.3733 21.0097 97.3805 21.0455 97.3964 21.0713C97.4108 21.0985 97.4411 21.1228 97.4844 21.1458C97.5276 21.1687 97.5882 21.1916 97.6661 21.2131C97.744 21.2345 97.845 21.2646 97.9705 21.299C98.008 21.3076 98.06 21.3219 98.1263 21.3434C98.1927 21.3649 98.259 21.3992 98.3239 21.4465C98.3889 21.4938 98.4451 21.5568 98.4927 21.637C98.5403 21.7158 98.5649 21.8174 98.5649 21.9406C98.5649 22.0423 98.5475 22.1354 98.5115 22.2213C98.4754 22.3072 98.4235 22.3831 98.3528 22.4447C98.2821 22.5063 98.1956 22.5564 98.0917 22.5908C97.9878 22.6252 97.8681 22.6438 97.7325 22.6438C97.6228 22.6438 97.5161 22.6295 97.4122 22.5994C97.3084 22.5693 97.2175 22.5221 97.1381 22.4591C97.0588 22.3946 96.9953 22.3144 96.9492 22.2156C96.903 22.1168 96.8799 21.9993 96.8813 21.8633H97.3069C97.3069 21.9377 97.3185 22.0008 97.343 22.0523L97.3401 22.0538Z" fill="#1D71B8"/>
<path d="M98.609 20.7988V20.3907H100.248V20.7988H99.6491V22.5962H99.2092V20.7988H98.609Z" fill="#1D71B8"/>
<path d="M101.193 21.2019C101.244 21.02 101.322 20.861 101.424 20.725C101.527 20.5889 101.655 20.483 101.811 20.407C101.967 20.3311 102.144 20.2939 102.346 20.2939C102.5 20.2939 102.646 20.3197 102.786 20.3727C102.926 20.4257 103.047 20.5016 103.154 20.6004C103.259 20.6992 103.343 20.8209 103.406 20.9656C103.468 21.1102 103.5 21.2735 103.5 21.4525C103.5 21.6316 103.473 21.8005 103.418 21.9352C103.363 22.0698 103.291 22.1887 103.202 22.2932C103.112 22.3978 103.01 22.4923 102.896 22.5768C102.782 22.6613 102.668 22.7458 102.552 22.8288C102.437 22.9119 102.324 23.0007 102.216 23.0967C102.108 23.1926 102.011 23.3029 101.928 23.4304H103.517V24.0763H101.048C101.048 23.8614 101.075 23.6738 101.131 23.5149C101.188 23.3559 101.264 23.2141 101.359 23.0881C101.456 22.962 101.569 22.8475 101.698 22.7415C101.828 22.6355 101.965 22.5281 102.11 22.4178C102.183 22.362 102.261 22.3032 102.345 22.246C102.428 22.1872 102.503 22.1228 102.573 22.0526C102.642 21.9824 102.7 21.9022 102.746 21.8134C102.792 21.7246 102.815 21.6244 102.815 21.5112C102.815 21.3308 102.767 21.1904 102.674 21.0902C102.578 20.9899 102.459 20.9398 102.311 20.9398C102.212 20.9398 102.128 20.9656 102.059 21.0172C101.99 21.0687 101.935 21.136 101.893 21.2191C101.851 21.3022 101.821 21.3938 101.804 21.4941C101.786 21.5943 101.778 21.6946 101.778 21.7934H101.124C101.118 21.5814 101.14 21.3852 101.192 21.2033L101.193 21.2019Z" fill="#1D71B8"/>
<path d="M103.722 21.2974C103.789 21.0525 103.877 20.8548 103.989 20.7059C104.102 20.557 104.231 20.451 104.38 20.388C104.529 20.3249 104.686 20.292 104.853 20.292C105.021 20.292 105.182 20.3235 105.331 20.388C105.479 20.451 105.611 20.557 105.725 20.7059C105.838 20.8548 105.928 21.0511 105.994 21.2974C106.061 21.5437 106.092 21.8459 106.092 22.2068C106.092 22.5677 106.059 22.8871 105.994 23.1363C105.929 23.3855 105.838 23.5846 105.725 23.7321C105.611 23.8796 105.479 23.987 105.331 24.05C105.182 24.113 105.022 24.146 104.853 24.146C104.684 24.146 104.529 24.1145 104.38 24.05C104.231 23.987 104.1 23.881 103.989 23.7321C103.877 23.5831 103.789 23.3855 103.722 23.1363C103.656 22.8871 103.624 22.5778 103.624 22.2068C103.624 21.8359 103.657 21.5437 103.722 21.2974ZM104.315 22.5906C104.321 22.741 104.341 22.8857 104.376 23.0246C104.409 23.1635 104.462 23.2838 104.537 23.3826C104.612 23.4814 104.716 23.5316 104.855 23.5316C104.993 23.5316 105.104 23.4814 105.179 23.3826C105.254 23.2838 105.309 23.1649 105.342 23.0246C105.375 22.8857 105.396 22.7396 105.403 22.5906C105.409 22.4403 105.413 22.3128 105.413 22.2068C105.413 22.1438 105.413 22.0665 105.41 21.9762C105.409 21.886 105.401 21.7929 105.391 21.6984C105.38 21.6024 105.364 21.5079 105.344 21.4148C105.322 21.3217 105.292 21.2372 105.25 21.1628C105.208 21.0883 105.155 21.0281 105.091 20.9823C105.028 20.9365 104.948 20.9136 104.856 20.9136C104.764 20.9136 104.686 20.9365 104.624 20.9823C104.562 21.0281 104.51 21.0883 104.469 21.1628C104.429 21.2372 104.399 21.3203 104.376 21.4148C104.353 21.5079 104.337 21.6024 104.328 21.6984C104.318 21.7944 104.312 21.886 104.311 21.9762C104.309 22.0665 104.308 22.1438 104.308 22.2068C104.308 22.3128 104.311 22.4403 104.318 22.5906H104.315Z" fill="#1D71B8"/>
<path d="M106.346 21.2019C106.397 21.02 106.475 20.861 106.577 20.725C106.679 20.5889 106.808 20.483 106.964 20.407C107.119 20.3311 107.297 20.2939 107.499 20.2939C107.653 20.2939 107.799 20.3197 107.939 20.3727C108.079 20.4257 108.2 20.5016 108.307 20.6004C108.412 20.6992 108.496 20.8209 108.559 20.9656C108.621 21.1102 108.653 21.2735 108.653 21.4525C108.653 21.6316 108.625 21.8005 108.571 21.9352C108.516 22.0698 108.444 22.1887 108.354 22.2932C108.265 22.3978 108.162 22.4923 108.048 22.5768C107.934 22.6613 107.82 22.7458 107.705 22.8288C107.59 22.9119 107.477 23.0007 107.369 23.0967C107.261 23.1926 107.164 23.3029 107.08 23.4304H108.67V24.0763H106.2C106.2 23.8614 106.228 23.6738 106.284 23.5149C106.34 23.3559 106.417 23.2141 106.512 23.0881C106.609 22.962 106.721 22.8475 106.851 22.7415C106.981 22.6355 107.118 22.5281 107.262 22.4178C107.336 22.362 107.414 22.3032 107.497 22.246C107.581 22.1872 107.656 22.1228 107.725 22.0526C107.794 21.9824 107.852 21.9022 107.898 21.8134C107.945 21.7246 107.968 21.6244 107.968 21.5112C107.968 21.3308 107.92 21.1904 107.826 21.0902C107.731 20.9899 107.611 20.9398 107.464 20.9398C107.365 20.9398 107.281 20.9656 107.212 21.0172C107.142 21.0687 107.088 21.136 107.046 21.2191C107.004 21.3022 106.974 21.3938 106.956 21.4941C106.939 21.5943 106.93 21.6946 106.93 21.7934H106.277C106.271 21.5814 106.293 21.3852 106.345 21.2033L106.346 21.2019Z" fill="#1D71B8"/>
<path d="M110.388 20.9981C110.308 20.9064 110.209 20.8606 110.09 20.8606C109.972 20.8606 109.867 20.9007 109.786 20.9794C109.704 21.0596 109.639 21.1556 109.591 21.2716C109.544 21.3862 109.508 21.5093 109.486 21.6397C109.463 21.77 109.45 21.8874 109.447 21.9891L109.457 21.9992C109.549 21.8502 109.659 21.7442 109.783 21.6812C109.909 21.6182 110.052 21.5853 110.216 21.5853C110.36 21.5853 110.502 21.6196 110.639 21.6884C110.777 21.7571 110.894 21.8502 110.989 21.9662C111.079 22.0794 111.145 22.2083 111.187 22.3529C111.229 22.4975 111.249 22.6451 111.249 22.7926C111.249 22.9831 111.221 23.1606 111.165 23.3253C111.109 23.49 111.03 23.6333 110.924 23.755C110.82 23.8767 110.696 23.9727 110.552 24.0414C110.408 24.1102 110.248 24.1445 110.072 24.1445C109.819 24.1445 109.609 24.0887 109.443 23.977C109.275 23.8653 109.143 23.7206 109.045 23.5402C108.945 23.3597 108.876 23.1563 108.838 22.9286C108.801 22.7009 108.781 22.4689 108.781 22.2312C108.781 21.9934 108.805 21.7714 108.853 21.5423C108.9 21.3131 108.978 21.1055 109.084 20.9193C109.189 20.7345 109.326 20.5827 109.492 20.4667C109.658 20.3507 109.861 20.292 110.102 20.292C110.246 20.292 110.38 20.3149 110.506 20.3608C110.631 20.4066 110.741 20.4725 110.838 20.5598C110.934 20.6472 111.012 20.7532 111.073 20.8806C111.133 21.0081 111.174 21.1542 111.193 21.3203H110.543C110.52 21.1971 110.47 21.0883 110.389 20.9966L110.388 20.9981ZM109.813 22.2082C109.744 22.2455 109.688 22.2956 109.643 22.3586C109.599 22.4216 109.565 22.4961 109.542 22.5792C109.519 22.6622 109.509 22.7496 109.509 22.8413C109.509 22.9258 109.521 23.0103 109.545 23.0933C109.57 23.1764 109.604 23.2509 109.65 23.3153C109.697 23.3812 109.754 23.4328 109.821 23.4714C109.888 23.5101 109.965 23.5301 110.052 23.5301C110.138 23.5301 110.207 23.5101 110.271 23.4714C110.334 23.4328 110.386 23.3812 110.432 23.3182C110.479 23.2552 110.51 23.1821 110.533 23.1005C110.556 23.0189 110.567 22.9358 110.567 22.8513C110.567 22.7668 110.556 22.678 110.535 22.5949C110.515 22.5119 110.483 22.4374 110.441 22.3729C110.399 22.3071 110.346 22.2541 110.279 22.214C110.213 22.1739 110.138 22.1538 110.052 22.1538C109.965 22.1538 109.883 22.1724 109.813 22.2097V22.2082Z" fill="#1D71B8"/>
<path d="M113.899 22.3071V22.953H112.454V22.3071H113.899Z" fill="#1D71B8"/>
<path d="M116.67 20.2939C116.833 20.2939 116.983 20.3097 117.117 20.3412C117.251 20.3727 117.367 20.4257 117.463 20.4973C117.56 20.5703 117.634 20.6663 117.687 20.7866C117.74 20.9069 117.766 21.0558 117.766 21.232C117.766 21.4225 117.727 21.5814 117.648 21.7089C117.569 21.8364 117.453 21.9409 117.3 22.0211C117.512 22.0884 117.67 22.2059 117.773 22.3734C117.877 22.541 117.929 22.7429 117.929 22.9807C117.929 23.1711 117.896 23.3373 117.828 23.4762C117.76 23.6151 117.671 23.7297 117.557 23.8185C117.443 23.9073 117.313 23.9717 117.168 24.0147C117.022 24.0576 116.872 24.0777 116.719 24.0777H115.057V20.2939H116.671H116.67ZM116.575 21.8249C116.709 21.8249 116.82 21.7891 116.906 21.7189C116.993 21.6487 117.036 21.5342 117.036 21.3738C117.036 21.285 117.022 21.2134 116.993 21.1561C116.964 21.1002 116.925 21.0558 116.878 21.0229C116.83 20.9914 116.774 20.9685 116.712 20.957C116.65 20.9441 116.585 20.9384 116.517 20.9384H115.81V21.8235H116.573L116.575 21.8249ZM116.618 23.4304C116.692 23.4304 116.762 23.4218 116.829 23.406C116.896 23.3903 116.956 23.363 117.006 23.3272C117.056 23.29 117.098 23.2399 117.129 23.1769C117.159 23.1138 117.175 23.0322 117.175 22.9334C117.175 22.7386 117.126 22.6011 117.026 22.5181C116.927 22.435 116.795 22.3935 116.632 22.3935H115.812V23.4318H116.618V23.4304Z" fill="#1D71B8"/>
<path d="M118.997 23.4189C119.099 23.5277 119.246 23.5836 119.438 23.5836C119.575 23.5836 119.695 23.5464 119.793 23.4705C119.893 23.3945 119.953 23.3143 119.976 23.2298H120.576C120.48 23.5578 120.333 23.7927 120.135 23.9345C119.936 24.0763 119.696 24.1464 119.414 24.1464C119.219 24.1464 119.041 24.1121 118.886 24.0433C118.728 23.9746 118.596 23.8758 118.487 23.7497C118.379 23.6223 118.294 23.4705 118.235 23.2943C118.176 23.1181 118.146 22.9234 118.146 22.7114C118.146 22.4994 118.176 22.3161 118.236 22.1385C118.297 21.9624 118.384 21.8091 118.496 21.6802C118.609 21.5513 118.741 21.4497 118.897 21.3752C119.053 21.3007 119.225 21.2635 119.414 21.2635C119.624 21.2635 119.809 21.3093 119.966 21.3981C120.123 21.4869 120.252 21.6086 120.353 21.7604C120.454 21.9123 120.526 22.0855 120.572 22.2803C120.617 22.4751 120.633 22.6785 120.62 22.889H118.828C118.838 23.1325 118.894 23.3101 118.997 23.4189ZM119.769 21.9767C119.686 21.8779 119.562 21.8278 119.396 21.8278C119.288 21.8278 119.197 21.8478 119.125 21.8893C119.053 21.9294 118.995 21.981 118.952 22.0397C118.909 22.0999 118.878 22.1629 118.861 22.2302C118.844 22.2975 118.832 22.3577 118.829 22.4106H119.939C119.907 22.2202 119.849 22.0755 119.769 21.9767Z" fill="#1D71B8"/>
<path d="M121.576 21.3361V21.8445H121.586C121.618 21.76 121.661 21.6812 121.716 21.6082C121.771 21.5366 121.833 21.4735 121.904 21.4234C121.974 21.3719 122.049 21.3332 122.13 21.3045C122.211 21.2759 122.293 21.2616 122.38 21.2616C122.424 21.2616 122.475 21.2702 122.528 21.2888V21.9877C122.496 21.9805 122.457 21.9748 122.413 21.9691C122.368 21.9633 122.325 21.9605 122.283 21.9605C122.157 21.9605 122.052 21.9834 121.966 22.0292C121.879 22.0751 121.81 22.1381 121.756 22.2168C121.703 22.297 121.665 22.3887 121.644 22.4947C121.621 22.6007 121.611 22.7152 121.611 22.8398V24.0744H120.928V21.3346H121.577L121.576 21.3361Z" fill="#1D71B8"/>
<path d="M125.047 24.2763C125.02 24.4181 124.962 24.5498 124.871 24.6716C124.782 24.7933 124.652 24.8964 124.482 24.9824C124.311 25.0683 124.085 25.1098 123.799 25.1098C123.678 25.1098 123.554 25.0926 123.427 25.0597C123.3 25.0268 123.185 24.9738 123.081 24.9036C122.977 24.8334 122.891 24.7418 122.821 24.63C122.752 24.5183 122.713 24.3851 122.703 24.2305H123.38C123.411 24.3723 123.475 24.4696 123.567 24.5241C123.659 24.5785 123.768 24.6057 123.889 24.6057C124.081 24.6057 124.221 24.5427 124.309 24.4152C124.397 24.2878 124.438 24.1274 124.436 23.9326V23.5717H124.425C124.352 23.7163 124.247 23.8237 124.111 23.8925C123.975 23.9612 123.831 23.9956 123.681 23.9956C123.495 23.9956 123.335 23.9598 123.201 23.8867C123.067 23.8151 122.955 23.7149 122.869 23.5903C122.782 23.4643 122.719 23.3182 122.678 23.1506C122.638 22.983 122.618 22.8055 122.618 22.6178C122.618 22.4417 122.641 22.2713 122.687 22.1066C122.733 21.9419 122.801 21.7972 122.892 21.6726C122.981 21.5466 123.092 21.4478 123.225 21.3733C123.358 21.2988 123.511 21.2616 123.684 21.2616C123.847 21.2616 123.99 21.296 124.114 21.3618C124.236 21.4291 124.34 21.5423 124.424 21.7013H124.434V21.3361H125.083V23.9011C125.083 24.0099 125.07 24.1359 125.043 24.2777L125.047 24.2763ZM124.114 23.3654C124.187 23.3225 124.248 23.2666 124.296 23.1964C124.343 23.1263 124.379 23.0461 124.404 22.9558C124.428 22.8656 124.44 22.7711 124.44 22.6723C124.44 22.5591 124.43 22.4517 124.411 22.3515C124.392 22.2512 124.359 22.161 124.314 22.0836C124.27 22.0063 124.21 21.9447 124.137 21.8989C124.063 21.8531 123.971 21.8302 123.858 21.8302C123.762 21.8302 123.68 21.8516 123.612 21.8932C123.544 21.9347 123.485 21.9934 123.439 22.065C123.393 22.1381 123.358 22.2197 123.338 22.3142C123.316 22.4073 123.306 22.5061 123.306 22.6078C123.306 22.7095 123.315 22.8055 123.332 22.9014C123.349 22.9974 123.38 23.0862 123.423 23.1635C123.466 23.2408 123.522 23.3053 123.593 23.354C123.664 23.4041 123.752 23.4285 123.857 23.4285C123.954 23.4285 124.037 23.407 124.112 23.3654H124.114Z" fill="#1D71B8"/>
<path d="M125.511 22.1782C125.522 22.002 125.561 21.8545 125.631 21.7385C125.702 21.6225 125.791 21.528 125.901 21.4578C126.009 21.3876 126.132 21.3375 126.269 21.3074C126.404 21.2773 126.541 21.2616 126.68 21.2616C126.805 21.2616 126.931 21.2716 127.059 21.2902C127.188 21.3103 127.305 21.3475 127.41 21.4034C127.515 21.4607 127.602 21.538 127.67 21.6397C127.737 21.7399 127.771 21.8731 127.771 22.0392V23.4643C127.771 23.5874 127.776 23.7063 127.789 23.8194C127.802 23.9326 127.824 24.0171 127.857 24.0744H127.166C127.153 24.0314 127.143 23.9884 127.134 23.944C127.126 23.8996 127.121 23.8552 127.117 23.8094C127.009 23.9326 126.88 24.0199 126.733 24.0686C126.586 24.1188 126.436 24.1431 126.282 24.1431C126.164 24.1431 126.052 24.1274 125.95 24.0958C125.848 24.0643 125.758 24.0142 125.68 23.9469C125.604 23.8796 125.543 23.7951 125.5 23.692C125.457 23.5903 125.435 23.4671 125.435 23.3268C125.435 23.1721 125.46 23.0432 125.51 22.9429C125.559 22.8427 125.624 22.7625 125.702 22.7023C125.78 22.6422 125.871 22.5978 125.97 22.5677C126.071 22.5376 126.172 22.5133 126.276 22.4961C126.378 22.4789 126.479 22.4646 126.579 22.4531C126.679 22.4431 126.767 22.4274 126.843 22.4059C126.919 22.3844 126.98 22.3543 127.026 22.3128C127.071 22.2727 127.093 22.2125 127.088 22.1352C127.088 22.0536 127.077 21.9891 127.052 21.9419C127.028 21.8946 126.996 21.8574 126.955 21.8302C126.915 21.8044 126.869 21.7858 126.816 21.7772C126.762 21.7686 126.706 21.7643 126.645 21.7643C126.511 21.7643 126.404 21.7958 126.328 21.8602C126.252 21.9232 126.207 22.0292 126.194 22.1782H125.511ZM127.087 22.7339C127.058 22.7625 127.022 22.784 126.979 22.7997C126.935 22.8155 126.889 22.8284 126.839 22.8398C126.79 22.8499 126.736 22.8599 126.683 22.867C126.628 22.8742 126.575 22.8828 126.52 22.8928C126.468 22.9028 126.417 22.9172 126.368 22.9358C126.319 22.953 126.276 22.9773 126.239 23.0074C126.201 23.0375 126.172 23.0747 126.149 23.1205C126.126 23.1664 126.116 23.2251 126.116 23.2953C126.116 23.3654 126.127 23.4184 126.149 23.4643C126.171 23.5101 126.202 23.5459 126.24 23.5731C126.279 23.5989 126.324 23.6175 126.374 23.629C126.425 23.639 126.478 23.6447 126.533 23.6447C126.667 23.6447 126.771 23.6204 126.844 23.5702C126.918 23.5201 126.973 23.4614 127.007 23.3926C127.042 23.3239 127.064 23.2537 127.072 23.1836C127.081 23.1134 127.084 23.0561 127.084 23.0146V22.7339H127.087Z" fill="#1D71B8"/>
<path d="M128.865 21.3365V21.7075H128.875C128.965 21.5657 129.073 21.4568 129.2 21.3795C129.327 21.3021 129.471 21.2635 129.634 21.2635C129.797 21.2635 129.934 21.2979 130.064 21.3637C130.194 21.431 130.292 21.5485 130.36 21.7189C130.433 21.5986 130.533 21.4926 130.66 21.401C130.787 21.3093 130.937 21.2635 131.108 21.2635C131.239 21.2635 131.361 21.2807 131.473 21.3165C131.586 21.3523 131.681 21.4081 131.762 21.4855C131.841 21.5628 131.905 21.6645 131.949 21.7905C131.994 21.9165 132.017 22.0669 132.017 22.2431V24.0763H131.335V22.5238C131.335 22.4321 131.332 22.3448 131.325 22.2646C131.319 22.1829 131.3 22.1128 131.271 22.0526C131.242 21.9925 131.201 21.9452 131.144 21.9094C131.088 21.8736 131.012 21.8564 130.916 21.8564C130.821 21.8564 130.743 21.8764 130.684 21.918C130.625 21.9581 130.579 22.0111 130.544 22.077C130.511 22.1428 130.488 22.2159 130.476 22.2989C130.465 22.382 130.459 22.4665 130.459 22.551V24.0777H129.777V22.541C129.777 22.4593 129.775 22.3791 129.772 22.3004C129.769 22.2202 129.755 22.1471 129.732 22.0798C129.707 22.0125 129.669 21.9595 129.612 21.918C129.556 21.8764 129.474 21.8564 129.366 21.8564C129.334 21.8564 129.291 21.865 129.239 21.8807C129.185 21.8965 129.135 21.9266 129.084 21.971C129.035 22.0154 128.992 22.0784 128.957 22.1615C128.923 22.2445 128.904 22.3534 128.904 22.488V24.0777H128.222V21.338H128.865V21.3365Z" fill="#1D71B8"/>
<path d="M132.471 22.1123C132.532 21.9333 132.618 21.7815 132.731 21.6569C132.843 21.5308 132.978 21.4349 133.135 21.3647C133.292 21.296 133.468 21.2616 133.663 21.2616C133.858 21.2616 134.035 21.296 134.194 21.3647C134.352 21.4334 134.488 21.5308 134.599 21.6569C134.712 21.7829 134.798 21.9347 134.859 22.1123C134.919 22.2913 134.95 22.489 134.95 22.7081C134.95 22.9272 134.919 23.1248 134.859 23.301C134.798 23.4771 134.712 23.629 134.599 23.7536C134.487 23.8796 134.351 23.9755 134.194 24.0429C134.035 24.1102 133.858 24.1431 133.663 24.1431C133.468 24.1431 133.291 24.1087 133.135 24.0429C132.978 23.9755 132.843 23.8796 132.731 23.7536C132.618 23.6275 132.532 23.4771 132.471 23.301C132.411 23.1248 132.38 22.9272 132.38 22.7081C132.38 22.489 132.411 22.2899 132.471 22.1123ZM133.09 23.0289C133.109 23.1334 133.142 23.2265 133.188 23.3096C133.234 23.3926 133.296 23.4585 133.373 23.5087C133.449 23.5588 133.546 23.5831 133.661 23.5831C133.777 23.5831 133.873 23.5588 133.951 23.5087C134.029 23.46 134.093 23.3926 134.139 23.3096C134.185 23.2265 134.218 23.1334 134.237 23.0289C134.256 22.9243 134.266 22.8184 134.266 22.7081C134.266 22.5978 134.256 22.4904 134.237 22.3844C134.218 22.2784 134.185 22.1853 134.139 22.1037C134.093 22.0221 134.031 21.9562 133.951 21.9046C133.872 21.8531 133.777 21.8273 133.661 21.8273C133.546 21.8273 133.451 21.8531 133.373 21.9046C133.296 21.9562 133.234 22.0221 133.188 22.1037C133.142 22.1853 133.109 22.2784 133.09 22.3844C133.071 22.4904 133.061 22.5978 133.061 22.7081C133.061 22.8184 133.071 22.9243 133.09 23.0289Z" fill="#1D71B8"/>
<path d="M137.499 22.3071V22.953H136.054V22.3071H137.499Z" fill="#1D71B8"/>
<path d="M139.209 20.2939V24.0777H138.454V20.2939H139.209Z" fill="#1D71B8"/>
<path d="M141.07 21.3375V21.8402H140.571V23.1965C140.571 23.3239 140.589 23.4084 140.628 23.4514C140.667 23.4944 140.744 23.5144 140.859 23.5144C140.898 23.5144 140.934 23.513 140.97 23.5087C141.006 23.5044 141.04 23.5001 141.071 23.4929V24.0758C141.014 24.0858 140.95 24.093 140.879 24.0973C140.809 24.1002 140.74 24.103 140.673 24.103C140.568 24.103 140.467 24.0959 140.373 24.0787C140.278 24.0629 140.196 24.0314 140.124 23.9856C140.051 23.9398 139.995 23.8739 139.953 23.7894C139.911 23.7049 139.891 23.5932 139.891 23.4557V21.8388H139.479V21.3361H139.891V20.514H140.574V21.3361H141.073L141.07 21.3375Z" fill="#1D71B8"/>
<path d="M141.271 22.1782C141.282 22.002 141.32 21.8545 141.391 21.7385C141.462 21.6225 141.551 21.528 141.661 21.4578C141.769 21.3876 141.892 21.3375 142.029 21.3074C142.164 21.2773 142.301 21.2616 142.44 21.2616C142.565 21.2616 142.691 21.2716 142.819 21.2902C142.948 21.3103 143.065 21.3475 143.17 21.4034C143.275 21.4607 143.362 21.538 143.43 21.6397C143.497 21.7399 143.531 21.8731 143.531 22.0392V23.4643C143.531 23.5874 143.536 23.7063 143.549 23.8194C143.562 23.9326 143.584 24.0171 143.617 24.0744H142.926C142.913 24.0314 142.903 23.9884 142.894 23.944C142.886 23.8996 142.881 23.8552 142.877 23.8094C142.769 23.9326 142.64 24.0199 142.493 24.0686C142.346 24.1188 142.196 24.1431 142.042 24.1431C141.923 24.1431 141.812 24.1274 141.71 24.0958C141.608 24.0643 141.518 24.0142 141.44 23.9469C141.364 23.8796 141.303 23.7951 141.26 23.692C141.217 23.5903 141.195 23.4671 141.195 23.3268C141.195 23.1721 141.22 23.0432 141.27 22.9429C141.319 22.8427 141.384 22.7625 141.462 22.7023C141.54 22.6422 141.631 22.5978 141.73 22.5677C141.831 22.5376 141.932 22.5133 142.036 22.4961C142.138 22.4789 142.239 22.4646 142.339 22.4531C142.438 22.4431 142.526 22.4274 142.603 22.4059C142.679 22.3844 142.74 22.3543 142.786 22.3128C142.831 22.2727 142.853 22.2125 142.848 22.1352C142.848 22.0536 142.837 21.9891 142.812 21.9419C142.788 21.8946 142.756 21.8574 142.715 21.8302C142.675 21.8044 142.629 21.7858 142.576 21.7772C142.522 21.7686 142.466 21.7643 142.405 21.7643C142.271 21.7643 142.164 21.7958 142.088 21.8602C142.011 21.9232 141.967 22.0292 141.954 22.1782H141.271ZM142.847 22.7339C142.818 22.7625 142.782 22.784 142.739 22.7997C142.695 22.8155 142.649 22.8284 142.599 22.8398C142.55 22.8499 142.496 22.8599 142.443 22.867C142.388 22.8742 142.335 22.8828 142.28 22.8928C142.228 22.9028 142.177 22.9172 142.128 22.9358C142.079 22.953 142.036 22.9773 141.999 23.0074C141.961 23.0375 141.932 23.0747 141.909 23.1205C141.886 23.1664 141.876 23.2251 141.876 23.2953C141.876 23.3654 141.887 23.4184 141.909 23.4643C141.931 23.5101 141.962 23.5459 142 23.5731C142.039 23.5989 142.084 23.6175 142.134 23.629C142.185 23.639 142.238 23.6447 142.293 23.6447C142.427 23.6447 142.531 23.6204 142.604 23.5702C142.678 23.5201 142.733 23.4614 142.767 23.3926C142.802 23.3239 142.824 23.2537 142.832 23.1836C142.841 23.1134 142.844 23.0561 142.844 23.0146V22.7339H142.847Z" fill="#1D71B8"/>
<path d="M144.668 20.2939V24.0777H143.985V20.2939H144.668Z" fill="#1D71B8"/>
<path d="M146.024 24.8921C145.893 24.9881 145.71 25.0353 145.476 25.0353C145.405 25.0353 145.336 25.0325 145.267 25.0267C145.198 25.021 145.128 25.0153 145.058 25.0081V24.388C145.121 24.3952 145.187 24.4023 145.255 24.4095C145.323 24.4166 145.389 24.4181 145.457 24.4152C145.547 24.4052 145.613 24.3651 145.656 24.2992C145.7 24.2333 145.721 24.1574 145.721 24.0772C145.721 24.0171 145.711 23.9612 145.692 23.9082L144.822 21.3375H145.548L146.111 23.2136H146.121L146.663 21.3375H147.37L146.333 24.4166C146.259 24.6386 146.157 24.7976 146.026 24.8936L146.024 24.8921Z" fill="#1D71B8"/>
</svg>
