<svg width="13" height="12" viewBox="0 0 13 12" fill="none" xmlns="http://www.w3.org/2000/svg">
<path d="M11.086 0C11.4536 0 11.806 0.140476 12.0659 0.390524C12.3258 0.640573 12.4718 0.979711 12.4718 1.33333V10.6667C12.4718 11.0203 12.3258 11.3594 12.0659 11.6095C11.806 11.8595 11.4536 12 11.086 12H1.38575C1.01823 12 0.665757 11.8595 0.405878 11.6095C0.145999 11.3594 0 11.0203 0 10.6667V1.33333C0 0.979711 0.145999 0.640573 0.405878 0.390524C0.665757 0.140476 1.01823 0 1.38575 0H11.086ZM10.7396 10.3333V6.8C10.7396 6.2236 10.5016 5.6708 10.078 5.26322C9.65441 4.85564 9.07988 4.62667 8.48081 4.62667C7.89187 4.62667 7.20592 4.97333 6.87334 5.49333V4.75333H4.94021V10.3333H6.87334V7.04667C6.87334 6.53333 7.30292 6.11333 7.83644 6.11333C8.09371 6.11333 8.34044 6.21167 8.52235 6.3867C8.70427 6.56173 8.80647 6.79913 8.80647 7.04667V10.3333H10.7396ZM2.68836 3.70667C2.99708 3.70667 3.29316 3.58867 3.51146 3.37863C3.72976 3.16859 3.8524 2.88371 3.8524 2.58667C3.8524 1.96667 3.33274 1.46 2.68836 1.46C2.3778 1.46 2.07997 1.5787 1.86037 1.78999C1.64077 2.00128 1.5174 2.28786 1.5174 2.58667C1.5174 3.20667 2.04399 3.70667 2.68836 3.70667ZM3.65146 10.3333V4.75333H1.73219V10.3333H3.65146Z" fill="#15549F"/>
</svg>
