<svg width="8" height="5" viewBox="0 0 8 5" fill="none" xmlns="http://www.w3.org/2000/svg">
<path d="M0.0240761 0.463125L3.16635 3.23687C3.25931 3.31898 3.38348 3.36772 3.51481 3.37367C3.64615 3.37961 3.77531 3.34234 3.8773 3.26906L3.91767 3.23687L7.05782 0.465C7.06797 0.499375 7.07481 0.534479 7.07835 0.570312L7.08119 0.625V4.375C7.08124 4.53268 7.01377 4.68455 6.8923 4.80017C6.77082 4.91579 6.60432 4.98661 6.42618 4.99844L6.37307 5H0.708119C0.529469 5.00005 0.357399 4.9405 0.226404 4.83328C0.0954086 4.72607 0.0151691 4.57911 0.00177034 4.42187L0 4.375V0.625C0 0.5875 0.00354058 0.551042 0.0106218 0.515625L0.0240761 0.463125ZM6.37307 0C6.41603 0 6.45792 0.00322921 6.49876 0.00968754L6.55895 0.0218751L3.54236 2.68438L0.524716 0.0212499C0.563899 0.011875 0.604025 0.00562497 0.645096 0.00249997L0.708119 0H6.37307Z" fill="#808080"/>
</svg>
