<svg width="7" height="6" viewBox="0 0 7 6" fill="none" xmlns="http://www.w3.org/2000/svg">
<path fill-rule="evenodd" clip-rule="evenodd" d="M4.74294 3.84956L4.67946 3.90866C5.49747 4.22179 5.88895 4.55052 6.45452 5.36993L6.58068 5.25264C6.94331 4.91596 6.84132 4.33926 6.37745 4.10391L5.68693 3.64796C5.38247 3.49362 4.98092 3.62822 4.74294 3.84923V3.84956ZM3.04572 3.3522C4.16196 4.38926 4.57106 4.00957 4.57106 4.00957C5.38908 4.3227 5.78607 4.64616 6.35164 5.46558L6.04428 5.75134C5.90791 5.87801 5.73868 5.97102 5.54376 5.98768C4.92841 6.04135 3.42309 5.98201 1.8188 4.49193C0.306298 3.08619 0.0350761 1.88179 0.00107885 1.32176C-0.0121423 1.10274 0.0974044 0.905733 0.260969 0.753391L0.557311 0.478209C1.37533 0.791332 1.77301 1.11604 2.33858 1.93546C2.33858 1.93546 1.92948 2.31515 3.04572 3.3522ZM2.44699 1.83445C2.71368 1.58644 2.81804 1.13606 2.58497 0.845381L2.02996 0.303366C1.74136 -0.0566536 1.18418 -0.103989 0.853654 0.203027L0.665979 0.377301C1.48383 0.690394 1.88148 1.01512 2.44699 1.83445Z" fill="#808080"/>
</svg>
