<svg width="7" height="6" viewBox="0 0 7 6" fill="none" xmlns="http://www.w3.org/2000/svg">
<path d="M2.21287 3C2.21287 3.25333 2.22541 3.49893 2.24872 3.73333H4.38989C4.4132 3.49893 4.42574 3.25333 4.42574 3C4.42574 2.74667 4.4132 2.50107 4.38975 2.26667H2.24901C2.22541 2.50107 2.21287 2.74667 2.21287 3ZM1.80467 2.26667C1.78158 2.51055 1.77011 2.75522 1.7703 3C1.7703 3.25147 1.7821 3.49693 1.80452 3.73333H0.0998742C0.0346683 3.49867 0 3.25293 0 3C0 2.74707 0.0346683 2.50133 0.0998742 2.26667H1.80467ZM2.30124 1.86667H4.33723C4.27173 1.46307 4.17259 1.1032 4.0497 0.8076C3.93478 0.5312 3.80348 0.3212 3.66909 0.184133C3.5344 0.0465333 3.41549 0 3.31931 0C3.22312 0 3.10422 0.0466667 2.96938 0.184C2.83498 0.321333 2.70369 0.5312 2.58876 0.8076C2.46588 1.1032 2.36674 1.46307 2.30109 1.86667M4.83394 2.26667C4.85651 2.50307 4.86832 2.74853 4.86832 3C4.86832 3.25147 4.85651 3.49693 4.83409 3.73333H6.53874C6.60394 3.49867 6.63861 3.25293 6.63861 3C6.63861 2.74707 6.60394 2.50133 6.53874 2.26667H4.83394ZM6.39372 1.86667H4.78437C4.71504 1.41493 4.60528 1.00667 4.4641 0.666933C4.37396 0.450133 4.26892 0.256 4.14928 0.0945334C5.17015 0.332133 6.00072 0.9976 6.39343 1.86667M1.85409 1.86667H0.245039C0.637602 0.9976 1.46831 0.332133 2.48918 0.0946667C2.36969 0.256 2.2645 0.450133 2.17437 0.666933C2.03319 1.00667 1.92357 1.41493 1.85424 1.86667M1.8538 4.13333H0.245039C0.637454 5.002 1.46743 5.6672 2.48741 5.90507C2.36792 5.74373 2.26318 5.5496 2.17319 5.33307C2.0323 4.99307 1.92284 4.58507 1.8538 4.13333ZM4.05103 5.19253C4.17347 4.89693 4.27232 4.53707 4.33782 4.13333H2.3008C2.36615 4.53707 2.46499 4.89693 2.58758 5.19253C2.70236 5.46893 2.83351 5.6788 2.9682 5.81587C3.10274 5.9532 3.22194 6 3.31931 6C3.41667 6 3.53587 5.9532 3.67042 5.81587C3.80511 5.6788 3.93625 5.46893 4.05103 5.19253ZM4.46543 5.33293C4.60631 4.9932 4.71578 4.58493 4.78482 4.13333H6.39357C6.00116 5.002 5.17118 5.6672 4.1512 5.90507C4.27069 5.74373 4.37544 5.54947 4.46543 5.33293Z" fill="#808080"/>
</svg>
