<svg width="15" height="10" viewBox="0 0 15 10" fill="none" xmlns="http://www.w3.org/2000/svg">
<path d="M5.98646 7.14286L9.87017 5L5.98646 2.85714V7.14286ZM14.6369 1.55C14.7342 1.88571 14.8015 2.33571 14.8464 2.90714C14.8988 3.47857 14.9212 3.97143 14.9212 4.4L14.9661 5C14.9661 6.56429 14.8464 7.71429 14.6369 8.45C14.4498 9.09286 14.0158 9.50714 13.3423 9.68571C12.9906 9.77857 12.3471 9.84286 11.3593 9.88571C10.3865 9.93571 9.49602 9.95714 8.67288 9.95714L7.48307 10C4.34766 10 2.39458 9.88571 1.62383 9.68571C0.95035 9.50714 0.516332 9.09286 0.329255 8.45C0.231975 8.11429 0.164628 7.66429 0.119729 7.09286C0.0673477 6.52143 0.0448984 6.02857 0.0448984 5.6L0 5C0 3.43571 0.119729 2.28571 0.329255 1.55C0.516332 0.907143 0.95035 0.492857 1.62383 0.314286C1.97553 0.221429 2.61908 0.157143 3.60684 0.114286C4.57964 0.0642856 5.47013 0.0428571 6.29326 0.0428571L7.48307 0C10.6185 0 12.5716 0.114286 13.3423 0.314286C14.0158 0.492857 14.4498 0.907143 14.6369 1.55Z" fill="#15549F"/>
</svg>
